<?xml version="1.0" encoding="utf-8"?>
<!-- Generator: Adobe Illustrator 25.0.1, SVG Export Plug-In . SVG Version: 6.00 Build 0)  -->
<svg version="1.1" id="Layer_1" xmlns="http://www.w3.org/2000/svg" xmlns:xlink="http://www.w3.org/1999/xlink" x="0px" y="0px"
	 viewBox="0 0 422 126" style="enable-background:new 0 0 422 126;" xml:space="preserve">
<style type="text/css">
	.st0{fill:#231F20;}
	.st1{fill:#EA0029;}
	.st2{fill:#FD7A6D;}
	.st3{fill:#F6564F;}
	.st4{fill:#929497;}
</style>
<g>
	<g>
		<path class="st0" d="M95.2,72.2c0,2.7,0.3,4.3,0.8,4.9s1.9,1,4,1.1c0.2,0.2,0.3,0.7,0.3,1.2s-0.1,1-0.3,1.2
			c-3.9-0.1-6.3-0.1-7.5-0.1s-3.8,0-7.5,0.1c-0.2-0.2-0.3-0.6-0.3-1.2s0.1-1,0.3-1.2c2.1-0.2,3.5-0.6,4-1.2s0.8-2.2,0.8-4.9V59.3
			c0-1.9-0.3-3-0.8-3.5s-1.7-0.8-3.6-1c-0.3-0.8-0.3-1.4-0.1-1.9c4.2-0.5,7.2-1.2,9.2-1.9c0.6,0,0.9,0.2,0.9,0.5c0,0.1,0,0.3,0,0.5
			s0,0.6-0.1,1.2c0,0.6,0,1.2-0.1,1.8s-0.1,1.2-0.1,2s0,1.4,0,2.1L95.2,72.2L95.2,72.2z M89.1,40.4c0-0.8,0.4-1.5,1.1-2.2
			c0.8-0.7,1.6-1,2.4-1c0.9,0,1.6,0.4,2.2,1.1c0.6,0.7,1,1.5,1,2.4c0,0.8-0.4,1.5-1.1,2.2s-1.5,1-2.4,1c-0.8,0-1.6-0.4-2.2-1.1
			C89.4,42.1,89.1,41.3,89.1,40.4z"/>
		<path class="st0" d="M109.9,55.9c0,0.2,0.1,0.4,0.2,0.4c0.1,0.1,0.2,0,0.3-0.1c2.9-3.4,5.9-5,9.2-5c3.4,0,6.2,1.4,8.5,4.1
			c2.3,2.7,3.4,5.9,3.4,9.5c0,5.3-1.7,9.5-5,12.7c-2.6,2.5-6,3.8-9.9,3.7c-2.2,0-4.1-0.4-5.8-1.1c-0.4-0.2-0.6-0.3-0.7-0.2
			c-0.1,0-0.2,0.3-0.2,0.7v7.2c0,2.7,0.3,4.3,0.9,4.9s2.1,1,4.6,1.1c0.2,0.2,0.3,0.7,0.3,1.2c0,0.6-0.1,1-0.3,1.2
			c-3.9-0.1-6.6-0.1-8.1-0.1c-1.2,0-3.8,0-7.5,0.1c-0.2-0.2-0.3-0.6-0.3-1.2s0.1-1,0.3-1.2c2.1-0.1,3.4-0.5,4-1.1
			c0.6-0.7,0.9-2.3,0.9-5V59.3c0-1.9-0.3-3-0.8-3.5s-1.7-0.8-3.6-1c-0.3-0.8-0.3-1.4-0.1-1.9c3.5-0.4,6.3-1.1,8.5-1.9
			c0.4,0,0.6,0.2,0.8,0.5C109.8,52.3,109.9,53.7,109.9,55.9z M111,58.3c-0.7,0.9-1.1,1.9-1.1,2.9v12.1c0,0.8,0,1.4,0.1,1.9
			c0.1,0.4,0.2,0.8,0.4,1s0.5,0.6,1.1,1.1c0.5,0.5,1.3,0.8,2.2,1.1c0.9,0.2,1.8,0.3,2.5,0.3c1.8,0,3.3-0.4,4.6-1.1
			c1.3-0.7,2.3-1.7,3-3s1.1-2.5,1.4-3.9s0.4-2.8,0.4-4.3c0-3.6-0.8-6.6-2.3-8.9c-1.5-2.3-3.4-3.4-5.7-3.4c-0.9,0-2.1,0.4-3.4,1.2
			S111.9,57.2,111,58.3z"/>
		<path class="st1" d="M138.5,72.2V43.1c0-1.4,0-2.5-0.1-3.2s-0.4-1.2-0.9-1.6c-0.5-0.3-0.9-0.5-1.1-0.5c-0.3,0-1-0.1-2.2-0.2
			c-0.5-0.5-0.6-1.2-0.4-2c4-0.3,7.1-0.9,9.4-1.8c0.6,0,0.9,0.2,0.9,0.7c-0.2,1.8-0.3,4.1-0.3,7v30.7c0,2.7,0.3,4.3,0.8,5
			c0.6,0.6,1.9,1,4,1.1c0.2,0.2,0.3,0.7,0.3,1.2s-0.1,1-0.3,1.2c-3.8-0.1-6.3-0.1-7.5-0.1s-3.7,0-7.5,0.1c-0.2-0.2-0.3-0.6-0.3-1.2
			s0.1-1,0.3-1.2c2.1-0.1,3.4-0.5,4-1.1C138.2,76.5,138.5,74.8,138.5,72.2z"/>
		<path class="st1" d="M162.4,81.2c-3.1,0-5.3-0.9-6.6-2.6s-2-3.9-2-6.5V59.4c0-2.1-0.3-3.4-0.8-4.1c-0.6-0.7-1.7-1.1-3.3-1.2
			c-0.2-0.2-0.3-0.6-0.3-1.2s0.1-1,0.3-1.3c3.3,0.1,5.6,0.1,6.9,0.1c1.1,0,1.9,0,2.4-0.1c0.3,0,0.5,0.2,0.5,0.5
			c-0.2,3.3-0.3,5.6-0.3,6.9v12.2c0,2.6,0.5,4.4,1.6,5.4s2.3,1.5,3.7,1.5c2,0,4.3-1.1,6.7-3.2c0.7-0.6,1.1-1.5,1.1-2.6V59.5
			c0-2.1-0.3-3.5-0.8-4.2s-1.7-1.1-3.4-1.2c-0.2-0.2-0.3-0.6-0.3-1.2s0.1-1,0.3-1.3c3.3,0.1,5.6,0.1,6.9,0.1c1.1,0,1.9,0,2.4-0.1
			c0.3,0,0.5,0.2,0.5,0.5c-0.2,3.3-0.3,5.6-0.3,6.9v12.8c0,1.7,0.3,2.9,0.9,3.6c0.6,0.7,1.9,1.1,4,1.3c0.2,0.2,0.3,0.5,0.3,0.9
			s-0.1,0.7-0.3,0.9c-3.8,0.4-6.5,1.3-8.1,2.6c-0.5,0.1-0.9,0.1-1.3,0c-0.5-1.6-0.8-2.9-0.8-3.9c0-0.5-0.3-0.5-0.8-0.1
			C168.2,79.9,165.1,81.2,162.4,81.2z"/>
		<path class="st1" d="M184.7,71.2c0.2-0.2,0.6-0.3,1.1-0.3s0.8,0.1,1.1,0.3c0.8,3.1,1.6,5.1,2.6,6.1c1,1.1,2.6,1.6,4.8,1.6
			c1.4,0,2.8-0.4,3.9-1.2c1.2-0.8,1.8-1.9,1.8-3.4s-0.5-2.6-1.4-3.5s-2.7-1.9-5.5-3c-2.7-1.1-4.6-2.3-5.7-3.6
			c-1.1-1.3-1.7-3.1-1.7-5.4c0-2.1,0.9-3.9,2.8-5.4c1.9-1.5,4.1-2.2,6.7-2.2c1,0,2.1,0.1,3.2,0.2c1.1,0.2,2.2,0.4,3.5,0.6
			c1.2,0.3,2,0.4,2.3,0.4c0,0.6-0.1,1.7-0.2,3.3c-0.1,1.6-0.2,2.9-0.2,3.8c-0.2,0.2-0.6,0.3-1.1,0.3s-0.9-0.1-1.1-0.3
			c-0.2-1.3-0.6-2.4-1.1-3.2c-0.5-0.9-1.1-1.5-1.9-1.9s-1.3-0.6-1.9-0.7c-0.5-0.1-1-0.2-1.5-0.2c-1.2,0-2.3,0.4-3.3,1.1
			c-1,0.8-1.5,1.8-1.5,3.1c0,0.7,0.1,1.3,0.4,1.9c0.2,0.6,0.5,1,0.8,1.4s0.8,0.7,1.5,1.1c0.7,0.4,1.3,0.7,1.8,0.9s1.2,0.5,2.3,0.9
			c5.4,2,8.1,4.9,8.1,8.8c0,1.6-0.4,3-1.1,4.2s-1.7,2.1-2.9,2.7s-2.3,1-3.5,1.3c-1.1,0.3-2.3,0.4-3.4,0.4c-2.2,0-4.2-0.2-6.1-0.7
			c-0.3-0.1-0.8-0.2-1.3-0.2c-0.4,0-1,0.1-1.7,0.2C185.1,78.2,185,75.1,184.7,71.2z"/>
		<path class="st1" d="M208.4,66.8c0-4.4,1.2-8.1,3.7-11c2.7-3.1,6.2-4.7,10.5-4.7c3.2,0,5.9,0.8,8.2,2.4c2.2,1.6,3.8,3.5,4.6,5.7
			c0.9,2.2,1.3,4.5,1.3,7c0,4.7-1.5,8.4-4.4,11.3c-2.6,2.5-5.9,3.8-9.9,3.7c-4.5,0-8-1.5-10.4-4.4C209.6,73.9,208.4,70.6,208.4,66.8
			z M221.6,53.6c-5,0-7.5,3.9-7.5,11.7c0,1.4,0.2,2.9,0.5,4.3c0.3,1.5,0.8,2.9,1.5,4.3s1.6,2.6,2.9,3.5c1.3,0.9,2.7,1.4,4.4,1.4
			c2,0,3.7-0.8,5.2-2.4s2.3-4.3,2.3-8.1c0-4.7-0.8-8.4-2.5-10.9C226.8,54.8,224.5,53.6,221.6,53.6z"/>
	</g>
	<g>
		<g>
			<path class="st1" d="M62.7,80.5h5.1v-9.2c-2.2,0.6-4.4,1.3-6.6,2.1C61.9,75.8,62.4,78.2,62.7,80.5z"/>
		</g>
		<g>
			<path class="st1" d="M56.1,75.5c-3.3,1.4-6.6,3.1-10,5c-0.1,0-0.1,0.1-0.2,0.1h14.4c-0.5-2-1-4.1-1.6-6.2
				C57.8,74.7,56.9,75.1,56.1,75.5z"/>
		</g>
		<g>
			<path class="st2" d="M60.7,71.2c2.4-0.7,4.8-1.3,7.2-1.8V58.8c-3.4,0.5-6.8,1.4-10.4,2.5C58.7,64.6,59.8,67.9,60.7,71.2z"/>
		</g>
		<g>
			<path class="st1" d="M53.7,60.6c-1.1-2.4-2.2-4.9-3.5-7.4c-1.5,0.7-2.9,1.6-4.2,2.7c-3.8,3-6.6,7-7.6,11.6c2.5-1.5,5.1-2.8,7.6-4
				C48.6,62.4,51.1,61.4,53.7,60.6z"/>
		</g>
		<g>
			<path class="st1" d="M46,77.1c3.3-1.7,6.7-3.2,10-4.4c0.6-0.2,1.3-0.5,1.9-0.7c-0.6-1.8-1.2-3.6-1.9-5.4
				c-0.5-1.4-1.1-2.8-1.7-4.2c-2.7,1-5.5,2.2-8.4,3.7c-2.6,1.3-5.3,2.9-8.1,4.6c-0.2,3.1,0.4,6.4,2,9.8C42,79.3,44,78.2,46,77.1z"/>
		</g>
		<g>
			<path class="st1" d="M33.9,72.3l-2.3-0.4c0.8-0.6,1.6-1.1,2.4-1.7c1-7.7,5.5-14.4,11.9-18.3c0.9-0.5,1.8-1,2.8-1.4
				c-0.2-0.4-0.4-0.8-0.7-1.3l1.2-4.9c1,1.7,1.9,3.3,2.7,5c1.3-0.4,2.6-0.6,4-0.8c3.7-0.4,7.7,0.1,11.8,1.6V37.8H24.9v42.8h9.9
				C34.1,77.8,33.8,75,33.9,72.3z"/>
		</g>
		<g>
			<path class="st3" d="M56.1,51.1c-0.9,0.2-1.8,0.5-2.7,0.8c1,2,1.9,4,2.7,6c0.3,0.6,0.5,1.2,0.7,1.8c3.7-1,7.3-1.6,11.1-1.9v-6.4
				C64,50.2,59.9,50.2,56.1,51.1z"/>
		</g>
		<g>
			<path class="st1" d="M46,55.9c1.3-1,2.7-1.9,4.2-2.7c1.3,2.5,2.4,5,3.5,7.4c-2.5,0.8-5.1,1.8-7.6,2.9c-2.5,1.2-5.1,2.5-7.6,4
				C39.5,62.9,42.3,58.9,46,55.9z M38,70.7c2.7-1.7,5.4-3.3,8.1-4.6c2.9-1.5,5.6-2.7,8.4-3.7c0.6,1.4,1.1,2.8,1.7,4.2
				c0.7,1.8,1.3,3.6,1.9,5.4c-0.6,0.2-1.3,0.4-1.9,0.7c-3.4,1.2-6.7,2.7-10,4.4c-2,1-4,2.2-6.1,3.4C38.4,77.1,37.8,73.8,38,70.7z"/>
		</g>
	</g>
	<g>
		<path class="st4" d="M257.7,49.3c0,0.8,0.1,1.3,0.3,1.5c0.2,0.2,0.7,0.3,1.5,0.3c0.1,0.1,0.1,0.2,0.1,0.4s0,0.3-0.1,0.4
			c-1.4,0-2.2,0-2.6,0s-1.3,0-2.6,0c-0.1-0.1-0.1-0.2-0.1-0.4s0-0.3,0.1-0.4c0.8,0,1.2-0.1,1.4-0.3s0.3-0.7,0.3-1.5v-8.1
			c0-0.8-0.1-1.3-0.3-1.5s-0.7-0.3-1.4-0.3c-0.1-0.1-0.1-0.2-0.1-0.4s0-0.3,0.1-0.4c1.4,0,2.2,0,2.6,0s1.3,0,2.7,0
			c0.1,0.1,0.1,0.2,0.1,0.4s0,0.3-0.1,0.4c-0.8,0-1.2,0.1-1.5,0.3c-0.2,0.2-0.3,0.7-0.3,1.5v8.1H257.7z"/>
		<path class="st4" d="M272.2,41.5c0-0.5,0-0.8-0.1-1.1c0-0.2-0.1-0.4-0.3-0.6c-0.2-0.1-0.3-0.2-0.5-0.3c-0.2,0-0.5-0.1-0.9-0.1
			c-0.1-0.1-0.1-0.2-0.1-0.4s0-0.3,0.1-0.4c1.4,0,2.1,0,2.3,0c0.2,0,1,0,2.3,0c0.1,0.1,0.1,0.2,0.1,0.4s0,0.3-0.1,0.4
			c-0.8,0.1-1.2,0.2-1.5,0.4c-0.2,0.2-0.3,0.7-0.3,1.6v9.9c0,0.4-0.2,0.7-0.5,0.7s-0.6-0.2-0.8-0.5l-7.1-8.9
			c-0.4-0.4-0.6-0.7-0.7-0.7s-0.2,0.3-0.2,1V49c0,0.5,0,0.8,0.1,1.1s0.1,0.4,0.3,0.6s0.3,0.2,0.5,0.3s0.5,0.1,0.9,0.1
			c0.1,0.1,0.1,0.2,0.1,0.4s0,0.3-0.1,0.4c-1.4,0-2.1,0-2.3,0c-0.2,0-1,0-2.3,0c-0.1-0.1-0.1-0.2-0.1-0.4s0-0.3,0.1-0.4
			c0.8-0.1,1.2-0.2,1.5-0.4c0.2-0.2,0.3-0.8,0.3-1.6v-8.4c-0.1-0.3-0.2-0.6-0.5-0.8c-0.3-0.3-0.7-0.4-1.1-0.4
			c-0.1-0.1-0.1-0.2-0.1-0.4s0-0.3,0.1-0.4h2.8l7,8.9c0.1,0.1,0.2,0.3,0.3,0.4s0.2,0.3,0.2,0.3s0.1,0.1,0.2,0.2
			c0.1,0.1,0.1,0.1,0.1,0.1h0.1c0.1,0,0.1-0.2,0.1-0.6v-6.5H272.2z"/>
		<path class="st4" d="M283.9,39.1c0.2,0.9,0.3,1.8,0.4,2.6c-0.1,0.1-0.3,0.1-0.7,0.1c-0.1-0.2-0.1-0.4-0.2-0.6s-0.1-0.3-0.2-0.5
			s-0.2-0.3-0.3-0.5c-0.1-0.1-0.2-0.3-0.4-0.4s-0.3-0.2-0.5-0.3s-0.4-0.2-0.6-0.2s-0.5-0.1-0.8-0.1c-0.6,0-1.1,0.2-1.6,0.7
			s-0.7,1-0.7,1.6c0,0.3,0.1,0.6,0.2,0.9c0.1,0.3,0.3,0.5,0.5,0.7s0.5,0.4,0.8,0.6c0.3,0.2,0.6,0.3,0.8,0.4c0.2,0.1,0.5,0.2,0.8,0.3
			s0.5,0.2,0.6,0.2c0.4,0.2,0.8,0.4,1.1,0.5c0.3,0.2,0.6,0.4,0.9,0.7s0.5,0.6,0.6,1s0.2,0.8,0.2,1.3c0,0.6-0.2,1.3-0.5,1.8
			c-0.3,0.6-0.8,1.1-1.4,1.4c-0.7,0.4-1.6,0.7-2.5,0.7c-0.7,0-1.4-0.1-2.1-0.2c-0.7-0.2-1.3-0.2-1.7-0.2c-0.2-0.9-0.3-1.9-0.4-3.1
			c0.2-0.1,0.4-0.1,0.7-0.1c0.4,1.9,1.7,2.9,3.7,2.9c0.8,0,1.4-0.2,1.9-0.6c0.4-0.4,0.7-1,0.7-1.9c0-0.4-0.1-0.7-0.2-1
			s-0.2-0.6-0.4-0.7s-0.4-0.4-0.6-0.5c-0.3-0.2-0.5-0.3-0.7-0.4c-0.2-0.1-0.4-0.2-0.8-0.3c-0.3-0.1-0.6-0.2-0.7-0.3
			c-0.6-0.3-1.1-0.5-1.6-0.8c-0.4-0.3-0.8-0.7-1.1-1.1c-0.3-0.5-0.5-1-0.5-1.6c0-1.1,0.4-1.9,1.2-2.6c0.8-0.7,1.7-1,2.8-1
			c0.8,0,1.4,0.1,2,0.3C283.4,38.9,283.7,39,283.9,39.1z"/>
		<path class="st4" d="M293.4,49.3c0,0.8,0.1,1.3,0.3,1.5c0.2,0.2,0.8,0.3,1.6,0.3c0.1,0.1,0.1,0.2,0.1,0.4s0,0.3-0.1,0.4
			c-1.4,0-2.3,0-2.8,0c-0.6,0-1.5,0-2.9,0c0-0.1-0.1-0.2-0.1-0.4s0-0.3,0.1-0.4c0.8,0,1.4-0.1,1.6-0.3s0.3-0.7,0.3-1.5v-7.8
			c0-0.7-0.1-1.2-0.2-1.5s-0.4-0.5-0.8-0.5h-1c-0.7,0-1.3,0.2-1.7,0.5c-0.5,0.3-0.8,0.9-1,1.7c-0.3,0-0.5,0-0.7-0.1
			c0.3-1.2,0.4-2.1,0.5-2.9c0,0,0-0.1,0.1-0.1c1.4,0.1,3,0.2,4.7,0.2h1.8c1.8,0,3.3-0.1,4.6-0.2c0,0,0.1,0,0.1,0.1
			c0,0.9,0.1,1.8,0.3,2.9c-0.2,0.1-0.4,0.1-0.7,0.1c-0.2-0.8-0.5-1.3-0.9-1.7s-1.1-0.5-1.9-0.5h-0.4c-0.4,0-0.6,0.2-0.7,0.5
			s-0.2,0.9-0.2,1.6L293.4,49.3L293.4,49.3z"/>
		<path class="st4" d="M303.4,49.3c0,0.8,0.1,1.3,0.3,1.5c0.2,0.2,0.7,0.3,1.5,0.3c0.1,0.1,0.1,0.2,0.1,0.4s0,0.3-0.1,0.4
			c-1.4,0-2.2,0-2.6,0s-1.3,0-2.6,0c-0.1-0.1-0.1-0.2-0.1-0.4s0-0.3,0.1-0.4c0.8,0,1.2-0.1,1.4-0.3c0.2-0.2,0.3-0.7,0.3-1.5v-8.1
			c0-0.8-0.1-1.3-0.3-1.5c-0.2-0.2-0.7-0.3-1.4-0.3c-0.1-0.1-0.1-0.2-0.1-0.4s0-0.3,0.1-0.4c1.4,0,2.2,0,2.6,0s1.3,0,2.7,0
			c0.1,0.1,0.1,0.2,0.1,0.4s0,0.3-0.1,0.4c-0.8,0-1.2,0.1-1.5,0.3c-0.2,0.2-0.3,0.7-0.3,1.5v8.1H303.4z"/>
		<path class="st4" d="M314.1,49.3c0,0.8,0.1,1.3,0.3,1.5c0.2,0.2,0.8,0.3,1.6,0.3c0.1,0.1,0.1,0.2,0.1,0.4s0,0.3-0.1,0.4
			c-1.4,0-2.3,0-2.8,0c-0.6,0-1.5,0-2.9,0c0-0.1-0.1-0.2-0.1-0.4s0-0.3,0.1-0.4c0.8,0,1.4-0.1,1.6-0.3s0.3-0.7,0.3-1.5v-7.8
			c0-0.7-0.1-1.2-0.2-1.5s-0.4-0.5-0.8-0.5h-1c-0.7,0-1.3,0.2-1.7,0.5c-0.5,0.3-0.8,0.9-1,1.7c-0.3,0-0.5,0-0.7-0.1
			c0.3-1.2,0.4-2.1,0.5-2.9c0,0,0-0.1,0.1-0.1c1.4,0.1,3,0.2,4.7,0.2h1.8c1.8,0,3.3-0.1,4.6-0.2c0,0,0.1,0,0.1,0.1
			c0,0.9,0.1,1.8,0.3,2.9c-0.2,0.1-0.4,0.1-0.7,0.1c-0.2-0.8-0.5-1.3-0.9-1.7s-1.1-0.5-1.9-0.5H315c-0.4,0-0.6,0.2-0.7,0.5
			s-0.2,0.9-0.2,1.6L314.1,49.3L314.1,49.3z"/>
		<path class="st4" d="M324,41.3v5.1c0,0.6,0,1,0,1.4s0.1,0.8,0.3,1.3c0.2,0.5,0.4,0.9,0.7,1.1c0.7,0.7,1.5,1,2.4,1
			c0.7,0,1.2-0.1,1.7-0.3s0.8-0.5,1.1-0.8s0.5-0.7,0.6-1.2s0.2-0.9,0.3-1.3c0-0.4,0-0.9,0-1.4v-5c0-0.4,0-0.8-0.1-1
			c0-0.2-0.1-0.4-0.3-0.5s-0.4-0.2-0.5-0.2c-0.2,0-0.5-0.1-1-0.1c-0.1-0.1-0.1-0.2-0.1-0.4s0-0.3,0.1-0.4c1.4,0,2.1,0,2.4,0
			c0.1,0,0.7,0,2.1,0c0.1,0.1,0.1,0.2,0.1,0.4s0,0.3-0.1,0.4c-0.5,0.1-0.8,0.1-1,0.2c-0.2,0.1-0.3,0.2-0.4,0.5
			c-0.1,0.2-0.2,0.7-0.2,1.2v4.6c0,1-0.1,1.8-0.2,2.5s-0.4,1.3-0.8,1.9s-0.9,1-1.6,1.3S328,52,327,52c-0.5,0-1-0.1-1.5-0.2
			s-1-0.4-1.5-0.7s-0.9-0.9-1.2-1.5c-0.3-0.7-0.5-1.5-0.5-2.5v-5.8c0-0.8-0.1-1.3-0.3-1.5s-0.6-0.3-1.3-0.3
			c-0.1-0.1-0.1-0.2-0.1-0.4s0-0.3,0.1-0.4c1.4,0,2.2,0,2.4,0c0.5,0,1.4,0,2.8,0c0,0.1,0.1,0.2,0.1,0.4s0,0.3-0.1,0.4
			c-0.8,0-1.3,0.1-1.5,0.3S324,40.5,324,41.3z"/>
		<path class="st4" d="M342.4,49.3c0,0.8,0.1,1.3,0.3,1.5c0.2,0.2,0.8,0.3,1.6,0.3c0.1,0.1,0.1,0.2,0.1,0.4s0,0.3-0.1,0.4
			c-1.4,0-2.3,0-2.8,0c-0.6,0-1.5,0-2.9,0c0-0.1-0.1-0.2-0.1-0.4s0-0.3,0.1-0.4c0.8,0,1.4-0.1,1.6-0.3s0.3-0.7,0.3-1.5v-7.8
			c0-0.7-0.1-1.2-0.2-1.5s-0.4-0.5-0.8-0.5h-1c-0.7,0-1.3,0.2-1.7,0.5c-0.5,0.3-0.8,0.9-1,1.7c-0.3,0-0.5,0-0.7-0.1
			c0.3-1.2,0.4-2.1,0.5-2.9c0,0,0-0.1,0.1-0.1c1.4,0.1,3,0.2,4.7,0.2h1.8c1.8,0,3.3-0.1,4.6-0.2c0,0,0.1,0,0.1,0.1
			c0,0.9,0.1,1.8,0.3,2.9c-0.2,0.1-0.4,0.1-0.7,0.1c-0.2-0.8-0.5-1.3-0.9-1.7s-1.1-0.5-1.9-0.5h-0.4c-0.4,0-0.6,0.2-0.7,0.5
			s-0.2,0.9-0.2,1.6L342.4,49.3L342.4,49.3z"/>
		<path class="st4" d="M361.5,45.2c0,1.7-0.4,3.1-1.3,4.3c-0.6,0.8-1.3,1.4-2.2,1.9c-0.9,0.4-1.9,0.7-3,0.7c-1.8,0-3.3-0.6-4.5-1.8
			s-1.8-2.8-1.8-4.7c0-1.8,0.5-3.3,1.4-4.6c0.6-0.8,1.3-1.4,2.1-1.8c0.8-0.4,1.8-0.7,2.8-0.7c1.9,0,3.5,0.6,4.7,1.8
			C360.9,41.5,361.5,43.1,361.5,45.2z M354.7,39.2c-0.5,0-1,0.1-1.4,0.4s-0.9,0.6-1.3,1s-0.7,1.1-1,1.9c-0.2,0.8-0.4,1.7-0.4,2.7
			c0,1.9,0.5,3.3,1.4,4.4c1,1.1,2.1,1.7,3.4,1.7c1.2,0,2.2-0.5,2.9-1.6c0.8-1,1.1-2.4,1.1-4.2c0-2-0.5-3.5-1.4-4.6
			C357.2,39.8,356.1,39.2,354.7,39.2z"/>
		<path class="st4" d="M255.9,61.3c0-0.8-0.1-1.3-0.3-1.5s-0.7-0.3-1.4-0.3c-0.1-0.1-0.1-0.2-0.1-0.3s0-0.3,0.1-0.4
			c1.4,0,2.2,0,2.6,0c0.3,0,0.8,0,1.5-0.1c0.7,0,1.1-0.1,1.3-0.1c0.9,0,1.6,0.1,2.2,0.3s1.1,0.5,1.4,0.9s0.5,0.7,0.6,1.1
			c0.1,0.3,0.2,0.7,0.2,1.1c0,0.5-0.1,0.9-0.2,1.4s-0.4,0.9-0.7,1.3c-0.3,0.4-0.8,0.8-1.5,1c-0.6,0.3-1.4,0.4-2.2,0.4
			c-0.7,0-1.2-0.1-1.6-0.2v3.4c0,0.8,0.1,1.3,0.4,1.5s0.8,0.3,1.7,0.4c0.1,0.1,0.1,0.2,0.1,0.4s0,0.3-0.1,0.4c-1.4,0-2.3,0-2.9,0
			c-0.4,0-1.3,0-2.6,0c-0.1-0.1-0.1-0.2-0.1-0.4s0-0.3,0.1-0.4c0.8,0,1.2-0.1,1.4-0.3c0.2-0.2,0.3-0.7,0.3-1.5v-8.1H255.9z
			 M257.6,60.7v4.7c0.2,0.1,0.8,0.1,1.5,0.1c1,0,1.8-0.2,2.3-0.7s0.8-1.3,0.8-2.3c0-1.2-0.3-2-0.8-2.4s-1.2-0.6-2-0.6
			C258.2,59.4,257.6,59.9,257.6,60.7z"/>
		<path class="st4" d="M278.7,65.2c0,1.7-0.4,3.1-1.3,4.3c-0.6,0.8-1.3,1.4-2.2,1.9c-0.9,0.4-1.9,0.7-3,0.7c-1.8,0-3.3-0.6-4.5-1.8
			c-1.2-1.2-1.8-2.8-1.8-4.7c0-1.8,0.5-3.3,1.4-4.6c0.6-0.8,1.3-1.4,2.1-1.8c0.8-0.4,1.8-0.7,2.8-0.7c1.9,0,3.5,0.6,4.7,1.8
			C278.1,61.6,278.7,63.2,278.7,65.2z M271.9,59.3c-0.5,0-1,0.1-1.4,0.4s-0.9,0.6-1.3,1s-0.7,1.1-1,1.9c-0.2,0.8-0.4,1.7-0.4,2.7
			c0,1.9,0.5,3.3,1.4,4.4c1,1.1,2.1,1.7,3.4,1.7c1.2,0,2.2-0.5,2.9-1.6c0.8-1,1.1-2.4,1.1-4.2c0-2-0.5-3.5-1.4-4.6
			C274.5,59.9,273.3,59.3,271.9,59.3z"/>
		<path class="st4" d="M283.1,71.9c-1.1,0-2,0-2.6,0c-0.1-0.1-0.1-0.2-0.1-0.4s0-0.3,0.1-0.4c0.8,0,1.2-0.1,1.4-0.3
			c0.2-0.2,0.3-0.7,0.3-1.5v-8.1c0-0.8-0.1-1.3-0.3-1.5c-0.2-0.2-0.7-0.3-1.4-0.3c-0.1-0.1-0.1-0.2-0.1-0.4s0-0.3,0.1-0.4
			c1.4,0,2.2,0,2.6,0s1.3,0,2.7,0c0,0.1,0.1,0.2,0.1,0.4s0,0.3-0.1,0.4c-0.8,0-1.2,0.1-1.4,0.3c-0.2,0.2-0.3,0.7-0.3,1.5V70
			c0,0.3,0.1,0.6,0.3,0.7c0.2,0.2,0.4,0.3,0.7,0.3h1.5c1,0,1.7-0.2,2.2-0.7s0.9-1.1,1.1-2c0.2,0,0.5,0,0.7,0.1
			c-0.1,1.2-0.3,2.3-0.5,3.3c-1.3,0-2.1,0-2.4,0h-4.6V71.9z"/>
		<path class="st4" d="M295.3,69.4c0,0.8,0.1,1.3,0.3,1.5c0.2,0.2,0.7,0.3,1.5,0.3c0.1,0.1,0.1,0.2,0.1,0.4s0,0.3-0.1,0.4
			c-1.4,0-2.2,0-2.6,0s-1.3,0-2.6,0c-0.1-0.1-0.1-0.2-0.1-0.4s0-0.3,0.1-0.4c0.8,0,1.2-0.1,1.4-0.3c0.2-0.2,0.3-0.7,0.3-1.5v-8.1
			c0-0.8-0.1-1.3-0.3-1.5c-0.2-0.2-0.7-0.3-1.4-0.3c-0.1-0.1-0.1-0.2-0.1-0.4s0-0.3,0.1-0.4c1.4,0,2.2,0,2.6,0s1.3,0,2.7,0
			c0.1,0.1,0.1,0.2,0.1,0.4s0,0.3-0.1,0.4c-0.8,0-1.2,0.1-1.5,0.3c-0.2,0.2-0.3,0.7-0.3,1.5v8.1H295.3z"/>
		<path class="st4" d="M306,69.4c0,0.8,0.1,1.3,0.3,1.5c0.2,0.2,0.8,0.3,1.6,0.3c0.1,0.1,0.1,0.2,0.1,0.4s0,0.3-0.1,0.4
			c-1.4,0-2.3,0-2.8,0c-0.6,0-1.5,0-2.9,0c0-0.1-0.1-0.2-0.1-0.4s0-0.3,0.1-0.4c0.8,0,1.4-0.1,1.6-0.3s0.3-0.7,0.3-1.5v-7.8
			c0-0.7-0.1-1.2-0.2-1.5s-0.4-0.5-0.8-0.5h-1c-0.7,0-1.3,0.2-1.7,0.5c-0.5,0.3-0.8,0.9-1,1.7c-0.3,0-0.5,0-0.7-0.1
			c0.3-1.2,0.4-2.1,0.5-2.9c0,0,0-0.1,0.1-0.1c1.4,0.1,3,0.2,4.7,0.2h1.8c1.8,0,3.3-0.1,4.6-0.2c0,0,0.1,0,0.1,0.1
			c0,0.9,0.1,1.8,0.3,2.9c-0.2,0.1-0.4,0.1-0.7,0.1c-0.2-0.8-0.5-1.3-0.9-1.7s-1.1-0.5-1.9-0.5h-0.4c-0.4,0-0.6,0.2-0.7,0.5
			S306,61,306,61.7L306,69.4L306,69.4z"/>
		<path class="st4" d="M317.7,64.6c0.8,0,1.3-0.1,1.5-0.2s0.3-0.6,0.3-1.2c0.1-0.1,0.2-0.1,0.3-0.1c0.2,0,0.3,0,0.3,0.1
			c0,0.8,0,1.4,0,1.8c0,0.2,0,0.8,0,1.8c-0.1,0.1-0.2,0.1-0.3,0.1s-0.3,0-0.3-0.1c0-0.4-0.1-0.6-0.1-0.8c-0.1-0.2-0.2-0.3-0.5-0.4
			s-0.7-0.2-1.2-0.2h-1.8v4.9c0,0.6,0.2,0.9,0.7,0.9h2.8c1.3,0,2.2-0.9,2.7-2.7c0.3-0.1,0.5,0,0.7,0.1c-0.2,1.1-0.4,2.2-0.8,3.4
			c-1.1,0-2,0-2.6,0H315c-1.1,0-2,0-2.6,0c-0.1-0.1-0.1-0.2-0.1-0.4s0-0.3,0.1-0.4c0.8,0,1.2-0.1,1.4-0.3c0.2-0.2,0.3-0.7,0.3-1.5
			v-8.1c0-0.8-0.1-1.3-0.3-1.5c-0.2-0.2-0.7-0.3-1.5-0.3c-0.1-0.1-0.1-0.2-0.1-0.4s0-0.3,0.1-0.4h2.6h5.2c0.4,0,0.7,0,1-0.1
			c0.1,0,0.1,0,0.1,0.1c0.1,0.5,0.3,1.4,0.5,2.9c-0.2,0.1-0.4,0.1-0.7,0.1c-0.3-0.8-0.5-1.4-0.8-1.8s-0.8-0.5-1.5-0.5h-2.1
			c-0.2,0-0.4,0.1-0.5,0.3s-0.2,0.4-0.2,0.7v4.2H317.7z M319.2,55.3c0.6,0.3,1,0.6,1.3,1.1l-2.9,1.2c-0.4,0.2-0.7,0.2-0.9,0.2
			c-0.2,0-0.3-0.1-0.3-0.3s0.1-0.3,0.3-0.4L319.2,55.3z"/>
		<path class="st4" d="M331.1,72.1c-1.4,0-2.6-0.3-3.6-1s-1.7-1.5-2.2-2.4s-0.7-2-0.7-3.2c0-2.2,0.7-3.9,2.1-5.2
			c1.2-1.1,2.7-1.7,4.3-1.7c1,0,1.9,0.1,2.9,0.4c0.9,0.3,1.5,0.4,1.6,0.5c0.2,1.4,0.4,2.5,0.4,3.1c-0.3,0.1-0.5,0.2-0.7,0.1
			c-0.7-2.3-2.2-3.4-4.5-3.4c-1.2,0-2.3,0.6-3.3,1.8c-0.4,0.5-0.7,1-0.9,1.7c-0.2,0.7-0.3,1.5-0.3,2.3c0,1,0.2,2,0.5,2.9
			s0.8,1.7,1.6,2.3c0.7,0.6,1.6,0.9,2.6,0.9c0.9,0,1.8-0.2,2.5-0.5s1.5-0.9,2.2-1.7c0.2,0,0.4,0.1,0.5,0.3
			C334.8,71.2,333.1,72.1,331.1,72.1z"/>
		<path class="st4" d="M349,61.6c0-0.5,0-0.8-0.1-1.1c0-0.2-0.1-0.4-0.3-0.6c-0.2-0.1-0.3-0.2-0.5-0.3c-0.2,0-0.5-0.1-0.9-0.1
			c-0.1-0.1-0.1-0.2-0.1-0.4s0-0.3,0.1-0.4c1.4,0,2.1,0,2.3,0c0.2,0,1,0,2.3,0c0.1,0.1,0.1,0.2,0.1,0.4s0,0.3-0.1,0.4
			c-0.8,0.1-1.2,0.2-1.5,0.4c-0.2,0.2-0.3,0.7-0.3,1.6v9.9c0,0.4-0.2,0.7-0.5,0.7s-0.6-0.2-0.8-0.5l-7.1-8.9
			c-0.4-0.4-0.6-0.7-0.7-0.7s-0.2,0.3-0.2,1v6.1c0,0.5,0,0.8,0.1,1.1s0.1,0.4,0.3,0.6s0.3,0.2,0.5,0.3s0.5,0.1,0.9,0.1
			c0.1,0.1,0.1,0.2,0.1,0.4c0,0.2,0,0.3-0.1,0.4c-1.4,0-2.1,0-2.3,0c-0.2,0-1,0-2.3,0c-0.1-0.1-0.1-0.2-0.1-0.4c0-0.2,0-0.3,0.1-0.4
			c0.8-0.1,1.2-0.2,1.5-0.4c0.2-0.2,0.3-0.8,0.3-1.6v-8.4c-0.1-0.3-0.2-0.6-0.5-0.8c-0.3-0.3-0.7-0.4-1.1-0.4
			c-0.1-0.1-0.1-0.2-0.1-0.4s0-0.3,0.1-0.4h2.8l7,8.9c0.1,0.1,0.2,0.3,0.3,0.4s0.2,0.3,0.2,0.3s0.1,0.1,0.2,0.2s0.1,0.1,0.1,0.1h0.1
			c0.1,0,0.1-0.2,0.1-0.6v-6.5H349z"/>
		<path class="st4" d="M356.9,69.4c0,0.8,0.1,1.3,0.3,1.5c0.2,0.2,0.7,0.3,1.5,0.3c0.1,0.1,0.1,0.2,0.1,0.4s0,0.3-0.1,0.4
			c-1.4,0-2.2,0-2.6,0s-1.3,0-2.6,0c-0.1-0.1-0.1-0.2-0.1-0.4s0-0.3,0.1-0.4c0.8,0,1.2-0.1,1.4-0.3c0.2-0.2,0.3-0.7,0.3-1.5v-8.1
			c0-0.8-0.1-1.3-0.3-1.5c-0.2-0.2-0.7-0.3-1.4-0.3c-0.1-0.1-0.1-0.2-0.1-0.4s0-0.3,0.1-0.4c1.4,0,2.2,0,2.6,0s1.3,0,2.7,0
			c0.1,0.1,0.1,0.2,0.1,0.4s0,0.3-0.1,0.4c-0.8,0-1.2,0.1-1.5,0.3c-0.2,0.2-0.3,0.7-0.3,1.5v8.1H356.9z"/>
		<path class="st4" d="M366.8,72.1c-1.4,0-2.6-0.3-3.6-1s-1.7-1.5-2.2-2.4s-0.7-2-0.7-3.2c0-2.2,0.7-3.9,2.1-5.2
			c1.2-1.1,2.7-1.7,4.3-1.7c1,0,1.9,0.1,2.9,0.4c0.9,0.3,1.5,0.4,1.6,0.5c0.2,1.4,0.4,2.5,0.4,3.1c-0.3,0.1-0.5,0.2-0.7,0.1
			c-0.7-2.3-2.2-3.4-4.5-3.4c-1.2,0-2.3,0.6-3.3,1.8c-0.4,0.5-0.7,1-0.9,1.7c-0.2,0.7-0.3,1.5-0.3,2.3c0,1,0.2,2,0.5,2.9
			s0.8,1.7,1.6,2.3c0.7,0.6,1.6,0.9,2.6,0.9c0.9,0,1.8-0.2,2.5-0.5s1.5-0.9,2.2-1.7c0.2,0,0.4,0.1,0.5,0.3
			C370.6,71.2,368.9,72.1,366.8,72.1z"/>
		<path class="st4" d="M387,65.2c0,1.7-0.4,3.1-1.3,4.3c-0.6,0.8-1.3,1.4-2.2,1.9c-0.9,0.4-1.9,0.7-3,0.7c-1.8,0-3.3-0.6-4.5-1.8
			c-1.2-1.2-1.8-2.8-1.8-4.7c0-1.8,0.5-3.3,1.4-4.6c0.6-0.8,1.3-1.4,2.1-1.8c0.8-0.4,1.8-0.7,2.8-0.7c1.9,0,3.5,0.6,4.7,1.8
			C386.4,61.6,387,63.2,387,65.2z M380.2,59.3c-0.5,0-1,0.1-1.4,0.4s-0.9,0.6-1.3,1s-0.7,1.1-1,1.9c-0.2,0.8-0.4,1.7-0.4,2.7
			c0,1.9,0.5,3.3,1.4,4.4c1,1.1,2.1,1.7,3.4,1.7c1.2,0,2.2-0.5,2.9-1.6c0.8-1,1.1-2.4,1.1-4.2c0-2-0.5-3.5-1.4-4.6
			C382.7,59.9,381.6,59.3,380.2,59.3z"/>
		<path class="st4" d="M256.8,78.9c0.2,0,0.7,0,1.5,0s1.4,0,1.9,0c2,0,3.6,0.7,5,2s2,3,2,4.9c0,1.2-0.2,2.2-0.6,3.1s-1,1.5-1.6,2
			s-1.4,0.8-2.1,1s-1.5,0.3-2.3,0.3s-1.6,0-2.4,0s-1.2,0-1.4,0c-0.4,0-1.3,0-2.6,0c-0.1-0.1-0.1-0.2-0.1-0.3s0-0.3,0.1-0.4
			c0.8,0,1.2-0.1,1.4-0.3c0.2-0.2,0.3-0.7,0.3-1.5v-8.1c0-0.8-0.1-1.3-0.3-1.5s-0.7-0.3-1.4-0.3c-0.1-0.1-0.1-0.2-0.1-0.3
			c0-0.2,0-0.3,0.1-0.4C255.5,78.9,256.4,78.9,256.8,78.9z M257.7,90.3c0,0.4,0.1,0.6,0.4,0.8c0.3,0.2,0.9,0.2,1.8,0.2
			c0.8,0,1.5-0.1,2.1-0.2c0.6-0.2,1.2-0.4,1.7-0.8s0.9-0.9,1.2-1.6c0.3-0.7,0.4-1.5,0.4-2.5c0-0.8-0.1-1.6-0.3-2.4
			c-0.2-0.8-0.5-1.5-1-2.1s-1-1.2-1.8-1.6s-1.7-0.6-2.7-0.6c-1.1,0-1.7,0.3-1.7,1v9.8H257.7z"/>
		<path class="st4" d="M271.2,90.4c0,0.1,0,0.2-0.1,0.3c0,0.1,0,0.2,0.1,0.3c0.1,0.1,0.2,0.1,0.2,0.2s0.2,0.1,0.3,0.1
			c0.2,0,0.3,0.1,0.4,0.1s0.2,0,0.4,0c0.1,0.1,0.1,0.2,0.1,0.4s0,0.3-0.1,0.4c-1,0-1.9,0-2.6,0c-0.2,0-0.8,0-1.8,0
			c-0.1-0.1-0.1-0.2-0.1-0.4s0-0.3,0.1-0.4c0.5,0,0.9-0.1,1.2-0.3c0.3-0.2,0.6-0.5,0.8-1.1l4.6-10.8c0.3,0,0.7-0.1,1.1-0.4l4.2,11.6
			c0.1,0.2,0.2,0.4,0.3,0.6c0.1,0.1,0.3,0.3,0.5,0.3c0.2,0.1,0.4,0.1,0.5,0.1s0.3,0,0.6,0.1c0.1,0.1,0.1,0.2,0.1,0.4s0,0.3-0.1,0.4
			c-1,0-1.8,0-2.3,0c-0.8,0-1.7,0-2.7,0c-0.1-0.1-0.1-0.2-0.1-0.4s0-0.3,0.1-0.4c0.1,0,0.2,0,0.3,0c0.1,0,0.2,0,0.3,0
			c0.1,0,0.2,0,0.3,0c0.1,0,0.2,0,0.2,0c0.1,0,0.1,0,0.2-0.1c0.1,0,0.1-0.1,0.2-0.1s0.1-0.1,0.1-0.1c0-0.1,0-0.1,0-0.2s0-0.1,0-0.2
			l-1.2-3.4H273c-0.2,0-0.4,0-0.5,0.1c-0.1,0-0.2,0.1-0.2,0.3L271.2,90.4z M273.4,86.3h3.6l-1.9-5.5H275l-2.1,5.3v0.1v0.1h0.1
			c0,0,0.1,0,0.2,0C273.2,86.3,273.3,86.3,273.4,86.3z"/>
		<path class="st1" d="M291.5,92c-1.1,0-2,0-2.6,0c-0.1-0.1-0.1-0.2-0.1-0.4s0-0.3,0.1-0.4c0.8,0,1.2-0.1,1.4-0.3
			c0.2-0.2,0.3-0.7,0.3-1.5v-8.1c0-0.8-0.1-1.3-0.3-1.5c-0.2-0.2-0.7-0.3-1.4-0.3c-0.1-0.1-0.1-0.2-0.1-0.4s0-0.3,0.1-0.4
			c1.4,0,2.2,0,2.6,0s1.3,0,2.7,0c0,0.1,0.1,0.2,0.1,0.4c0,0.2,0,0.3-0.1,0.4c-0.8,0-1.2,0.1-1.4,0.3c-0.2,0.2-0.3,0.7-0.3,1.5v8.8
			c0,0.3,0.1,0.6,0.3,0.7c0.2,0.2,0.4,0.3,0.7,0.3h1.5c1,0,1.7-0.2,2.2-0.7s0.9-1.1,1.1-2c0.2,0,0.5,0,0.7,0.1
			c-0.1,1.2-0.3,2.3-0.5,3.3c-1.3,0-2.1,0-2.4,0h-4.6V92z"/>
		<path class="st1" d="M303.4,81.5v5.1c0,0.6,0,1,0,1.4s0.1,0.8,0.3,1.3c0.2,0.5,0.4,0.9,0.7,1.1c0.7,0.7,1.5,1,2.4,1
			c0.7,0,1.2-0.1,1.7-0.3c0.5-0.2,0.8-0.5,1.1-0.8s0.5-0.7,0.6-1.2s0.2-0.9,0.3-1.3c0-0.4,0-0.9,0-1.4v-5c0-0.4,0-0.8-0.1-1
			c0-0.2-0.1-0.4-0.3-0.5s-0.4-0.2-0.5-0.2c-0.2,0-0.5-0.1-1-0.1c-0.1-0.1-0.1-0.2-0.1-0.4s0-0.3,0.1-0.4c1.4,0,2.1,0,2.4,0
			c0.1,0,0.7,0,2.1,0c0.1,0.1,0.1,0.2,0.1,0.4c0,0.2,0,0.3-0.1,0.4c-0.5,0.1-0.8,0.1-1,0.2s-0.3,0.2-0.4,0.5
			c-0.1,0.2-0.2,0.7-0.2,1.2v4.6c0,1-0.1,1.8-0.2,2.5s-0.4,1.3-0.8,1.9s-0.9,1-1.6,1.3s-1.5,0.4-2.6,0.4c-0.5,0-1-0.1-1.5-0.2
			s-1-0.4-1.5-0.7s-0.9-0.9-1.2-1.5c-0.3-0.7-0.5-1.5-0.5-2.5v-5.8c0-0.8-0.1-1.3-0.3-1.5s-0.6-0.3-1.3-0.3
			c-0.1-0.1-0.1-0.2-0.1-0.4s0-0.3,0.1-0.4c1.4,0,2.2,0,2.4,0c0.5,0,1.4,0,2.8,0c0,0.1,0.1,0.2,0.1,0.4c0,0.2,0,0.3-0.1,0.4
			c-0.8,0-1.3,0.1-1.5,0.3S303.4,80.6,303.4,81.5z"/>
		<path class="st1" d="M322.1,79.2c0.2,0.9,0.3,1.8,0.4,2.6c-0.1,0.1-0.3,0.1-0.7,0.1c-0.1-0.2-0.1-0.4-0.2-0.6s-0.1-0.3-0.2-0.5
			s-0.2-0.3-0.3-0.5c-0.1-0.1-0.2-0.3-0.4-0.4s-0.3-0.2-0.5-0.3c-0.2-0.1-0.4-0.2-0.6-0.2s-0.5-0.1-0.8-0.1c-0.6,0-1.1,0.2-1.6,0.7
			s-0.7,1-0.7,1.6c0,0.3,0.1,0.6,0.2,0.9s0.3,0.5,0.5,0.7s0.5,0.4,0.8,0.6s0.6,0.3,0.8,0.4c0.2,0.1,0.5,0.2,0.8,0.3s0.5,0.2,0.6,0.2
			c0.4,0.2,0.8,0.4,1.1,0.5c0.3,0.2,0.6,0.4,0.9,0.7c0.3,0.3,0.5,0.6,0.6,1s0.2,0.8,0.2,1.3c0,0.6-0.2,1.3-0.5,1.8
			c-0.3,0.6-0.8,1.1-1.4,1.4c-0.7,0.4-1.6,0.7-2.5,0.7c-0.7,0-1.4-0.1-2.1-0.2c-0.7-0.2-1.3-0.2-1.7-0.2c-0.2-0.9-0.3-1.9-0.4-3.1
			c0.2-0.1,0.4-0.1,0.7-0.1c0.4,1.9,1.7,2.9,3.7,2.9c0.8,0,1.4-0.2,1.9-0.6c0.4-0.4,0.7-1,0.7-1.9c0-0.4-0.1-0.7-0.2-1
			s-0.2-0.6-0.4-0.7s-0.4-0.4-0.6-0.5c-0.3-0.2-0.5-0.3-0.7-0.4s-0.4-0.2-0.8-0.3c-0.3-0.1-0.6-0.2-0.7-0.3
			c-0.6-0.3-1.1-0.5-1.6-0.8c-0.4-0.3-0.8-0.7-1.1-1.1c-0.3-0.5-0.5-1-0.5-1.6c0-1.1,0.4-1.9,1.2-2.6c0.8-0.7,1.7-1,2.8-1
			c0.8,0,1.4,0.1,2,0.3C321.5,79.1,321.9,79.2,322.1,79.2z"/>
		<path class="st1" d="M338,85.3c0,1.7-0.4,3.1-1.3,4.3c-0.6,0.8-1.3,1.4-2.2,1.9c-0.9,0.4-1.9,0.7-3,0.7c-1.8,0-3.3-0.6-4.5-1.8
			c-1.2-1.2-1.8-2.8-1.8-4.7c0-1.8,0.5-3.3,1.4-4.6c0.6-0.8,1.3-1.4,2.1-1.8c0.8-0.4,1.8-0.7,2.8-0.7c1.9,0,3.5,0.6,4.7,1.8
			C337.4,81.7,338,83.3,338,85.3z M331.2,79.4c-0.5,0-1,0.1-1.4,0.4s-0.9,0.6-1.3,1s-0.7,1.1-1,1.9c-0.2,0.8-0.4,1.7-0.4,2.7
			c0,1.9,0.5,3.3,1.4,4.4c1,1.1,2.1,1.7,3.4,1.7c1.2,0,2.2-0.5,2.9-1.6c0.8-1,1.1-2.4,1.1-4.2c0-2-0.5-3.5-1.4-4.6
			C333.7,80,332.6,79.4,331.2,79.4z"/>
		<path class="st1" d="M344.9,85.5H343v4c0,0.8,0.1,1.3,0.3,1.5c0.2,0.2,0.7,0.3,1.4,0.3c0.1,0.1,0.1,0.2,0.1,0.4s0,0.3-0.1,0.4
			c-1.4,0-2.2,0-2.6,0s-1.3,0-2.6,0c-0.1-0.1-0.1-0.2-0.1-0.4s0-0.3,0.1-0.4c0.8,0,1.2-0.1,1.4-0.3c0.2-0.2,0.3-0.7,0.3-1.5v-8.1
			c0-0.8-0.1-1.3-0.3-1.5c-0.2-0.2-0.7-0.3-1.5-0.3c-0.1-0.1-0.1-0.2-0.1-0.4s0-0.3,0.1-0.4h2.6h5.2c0.4,0,0.7,0,1-0.1
			c0,0,0.1,0,0.1,0.1c0.1,0.8,0.3,1.8,0.4,2.9c-0.2,0.1-0.4,0.1-0.6,0.1c-0.2-0.5-0.3-1-0.5-1.3s-0.5-0.5-0.9-0.7s-1-0.3-1.7-0.3
			h-1.3c-0.5,0-0.7,0.2-0.7,0.7v4.4h1.9c0.8,0,1.3-0.1,1.5-0.2s0.3-0.6,0.3-1.2c0.1-0.1,0.2-0.1,0.3-0.1c0.2,0,0.3,0,0.3,0.1
			c0,0.8,0,1.4,0,1.8c0,0.2,0,0.8,0,1.8c-0.1,0.1-0.2,0.1-0.3,0.1c-0.2,0-0.3,0-0.3-0.1c0-0.4-0.1-0.6-0.1-0.8
			c-0.1-0.2-0.2-0.3-0.5-0.4C345.9,85.5,345.5,85.5,344.9,85.5z"/>
		<path class="st1" d="M363.2,85.3c0,1.7-0.4,3.1-1.3,4.3c-0.6,0.8-1.3,1.4-2.2,1.9c-0.9,0.4-1.9,0.7-3,0.7c-1.8,0-3.3-0.6-4.5-1.8
			c-1.2-1.2-1.8-2.8-1.8-4.7c0-1.8,0.5-3.3,1.4-4.6c0.6-0.8,1.3-1.4,2.1-1.8c0.8-0.4,1.8-0.7,2.8-0.7c1.9,0,3.5,0.6,4.7,1.8
			C362.6,81.7,363.2,83.3,363.2,85.3z M356.4,79.4c-0.5,0-1,0.1-1.4,0.4s-0.9,0.6-1.3,1s-0.7,1.1-1,1.9c-0.2,0.8-0.4,1.7-0.4,2.7
			c0,1.9,0.5,3.3,1.4,4.4c1,1.1,2.1,1.7,3.4,1.7c1.2,0,2.2-0.5,2.9-1.6c0.8-1,1.1-2.4,1.1-4.2c0-2-0.5-3.5-1.4-4.6
			C358.9,80,357.8,79.4,356.4,79.4z"/>
		<path class="st1" d="M375.9,81.7c0-0.5,0-0.8-0.1-1.1c0-0.2-0.1-0.4-0.3-0.6c-0.2-0.1-0.3-0.2-0.5-0.3c-0.2,0-0.5-0.1-0.9-0.1
			c-0.1-0.1-0.1-0.2-0.1-0.4s0-0.3,0.1-0.4c1.4,0,2.1,0,2.3,0c0.2,0,1,0,2.3,0c0.1,0.1,0.1,0.2,0.1,0.4c0,0.2,0,0.3-0.1,0.4
			c-0.8,0.1-1.2,0.2-1.5,0.4c-0.2,0.2-0.3,0.7-0.3,1.6v9.9c0,0.4-0.2,0.7-0.5,0.7s-0.6-0.2-0.8-0.5l-7.1-8.9
			c-0.4-0.4-0.6-0.7-0.7-0.7s-0.2,0.3-0.2,1v6.1c0,0.5,0,0.8,0.1,1.1s0.1,0.4,0.3,0.6s0.3,0.2,0.5,0.3s0.5,0.1,0.9,0.1
			c0.1,0.1,0.1,0.2,0.1,0.4c0,0.2,0,0.3-0.1,0.4c-1.4,0-2.1,0-2.3,0c-0.2,0-1,0-2.3,0c-0.1-0.1-0.1-0.2-0.1-0.4c0-0.2,0-0.3,0.1-0.4
			c0.8-0.1,1.2-0.2,1.5-0.4c0.2-0.2,0.3-0.8,0.3-1.6v-8.4c-0.1-0.3-0.2-0.6-0.5-0.8c-0.3-0.3-0.7-0.4-1.1-0.4
			c-0.1-0.1-0.1-0.2-0.1-0.4s0-0.3,0.1-0.4h2.8l7,8.9c0.1,0.1,0.2,0.3,0.3,0.4s0.2,0.3,0.2,0.3s0.1,0.1,0.2,0.2s0.1,0.1,0.1,0.1h0.1
			c0.1,0,0.1-0.2,0.1-0.6v-6.5H375.9z"/>
		<path class="st1" d="M383.8,89.5c0,0.8,0.1,1.3,0.3,1.5c0.2,0.2,0.7,0.3,1.5,0.3c0.1,0.1,0.1,0.2,0.1,0.4s0,0.3-0.1,0.4
			c-1.4,0-2.2,0-2.6,0s-1.3,0-2.6,0c-0.1-0.1-0.1-0.2-0.1-0.4s0-0.3,0.1-0.4c0.8,0,1.2-0.1,1.4-0.3c0.2-0.2,0.3-0.7,0.3-1.5v-8.1
			c0-0.8-0.1-1.3-0.3-1.5c-0.2-0.2-0.7-0.3-1.4-0.3c-0.1-0.1-0.1-0.2-0.1-0.4s0-0.3,0.1-0.4c1.4,0,2.2,0,2.6,0s1.3,0,2.7,0
			c0.1,0.1,0.1,0.2,0.1,0.4c0,0.2,0,0.3-0.1,0.4c-0.8,0-1.2,0.1-1.5,0.3c-0.2,0.2-0.3,0.7-0.3,1.5v8.1H383.8z"/>
		<path class="st1" d="M389.7,90.4c0,0.1,0,0.2-0.1,0.3c0,0.1,0,0.2,0.1,0.3c0.1,0.1,0.2,0.1,0.2,0.2s0.2,0.1,0.3,0.1
			c0.2,0,0.3,0.1,0.4,0.1s0.2,0,0.4,0c0.1,0.1,0.1,0.2,0.1,0.4s0,0.3-0.1,0.4c-1,0-1.9,0-2.6,0c-0.2,0-0.8,0-1.8,0
			c-0.1-0.1-0.1-0.2-0.1-0.4s0-0.3,0.1-0.4c0.5,0,0.9-0.1,1.2-0.3c0.3-0.2,0.6-0.5,0.8-1.1l4.6-10.8c0.3,0,0.7-0.1,1.1-0.4l4.2,11.6
			c0.1,0.2,0.2,0.4,0.3,0.6c0.1,0.1,0.3,0.3,0.5,0.3c0.2,0.1,0.4,0.1,0.5,0.1s0.3,0,0.6,0.1c0.1,0.1,0.1,0.2,0.1,0.4s0,0.3-0.1,0.4
			c-1,0-1.8,0-2.3,0c-0.8,0-1.7,0-2.7,0c-0.1-0.1-0.1-0.2-0.1-0.4s0-0.3,0.1-0.4c0.1,0,0.2,0,0.3,0c0.1,0,0.2,0,0.3,0
			c0.1,0,0.2,0,0.3,0c0.1,0,0.2,0,0.2,0c0.1,0,0.1,0,0.2-0.1c0.1,0,0.1-0.1,0.2-0.1s0.1-0.1,0.1-0.1c0-0.1,0-0.1,0-0.2s0-0.1,0-0.2
			l-1.2-3.4h-4.3c-0.2,0-0.4,0-0.5,0.1c-0.1,0-0.2,0.1-0.2,0.3L389.7,90.4z M391.9,86.3h3.6l-1.9-5.5h-0.1l-2.1,5.3v0.1v0.1h0.1
			c0,0,0.1,0,0.2,0C391.7,86.3,391.8,86.3,391.9,86.3z"/>
	</g>
</g>
</svg>
