<?xml version="1.0" encoding="UTF-8"?>
<!-- Generator: Adobe Illustrator 25.0.1, SVG Export Plug-In . SVG Version: 6.00 Build 0)  -->
<svg version="1.1" id="Layer_1" xmlns="http://www.w3.org/2000/svg" xmlns:xlink="http://www.w3.org/1999/xlink" x="0px" y="0px" viewBox="0 0 788.5 186.9" style="enable-background:new 0 0 788.5 186.9;" xml:space="preserve">
<style type="text/css">
	.st0{fill:#FFFFFF;}
</style>
<g>
	<g>
		<g>
			<path class="st0" d="M221.6,52.3v11.3c0,1.2,0,2.3,0.1,3.1c0.1,0.8,0.3,1.7,0.6,2.7c0.4,1,0.9,1.9,1.6,2.5     c1.5,1.5,3.3,2.2,5.3,2.2c1.5,0,2.7-0.2,3.7-0.7c1.1-0.5,1.9-1,2.4-1.7c0.6-0.7,1-1.5,1.3-2.6c0.3-1,0.5-2,0.6-2.9     c0.1-0.9,0.1-1.9,0.1-3.1V52.3c0-1-0.1-1.7-0.1-2.2c-0.1-0.5-0.3-0.9-0.7-1.1c-0.4-0.3-0.8-0.4-1.2-0.5c-0.4-0.1-1.1-0.1-2.1-0.2     c-0.1-0.1-0.2-0.4-0.2-0.8c0-0.4,0.1-0.7,0.2-0.8c3,0.1,4.7,0.1,5.2,0.1c0.1,0,1.6,0,4.6-0.1c0.1,0.2,0.2,0.4,0.2,0.8     s-0.1,0.7-0.2,0.8c-1.1,0.1-1.8,0.2-2.2,0.4c-0.4,0.1-0.7,0.5-0.9,1c-0.2,0.5-0.3,1.4-0.3,2.6v10.1c0,2.1-0.2,3.9-0.5,5.5     c-0.3,1.6-0.9,3-1.7,4.2c-0.8,1.3-2,2.2-3.5,2.9c-1.5,0.6-3.4,1-5.6,1c-1.2,0-2.3-0.2-3.4-0.5c-1.1-0.3-2.2-0.8-3.3-1.6     c-1.1-0.7-2-1.9-2.7-3.4c-0.7-1.5-1-3.4-1-5.5V52.3c0-1.7-0.2-2.8-0.6-3.3c-0.4-0.4-1.3-0.7-2.8-0.7c-0.1-0.1-0.2-0.4-0.2-0.8     c0-0.4,0.1-0.7,0.2-0.8c3,0.1,4.7,0.1,5.3,0.1c1.1,0,3.1,0,6-0.1c0.1,0.2,0.1,0.4,0.1,0.8s-0.1,0.7-0.2,0.8     c-1.8,0.1-2.9,0.3-3.4,0.7C221.8,49.4,221.6,50.5,221.6,52.3z"/>
			<path class="st0" d="M291.5,52.7c0-1-0.1-1.8-0.1-2.4c-0.1-0.5-0.3-1-0.7-1.3c-0.4-0.3-0.7-0.5-1.1-0.6c-0.4-0.1-1-0.2-2-0.3     c-0.1-0.1-0.2-0.4-0.2-0.8c0-0.4,0.1-0.7,0.2-0.8c3,0.1,4.6,0.1,4.9,0.1c0.4,0,2.1,0,5-0.1c0.1,0.2,0.2,0.4,0.2,0.8     s0,0.7-0.2,0.8c-1.7,0.2-2.7,0.5-3.2,1c-0.5,0.5-0.7,1.6-0.7,3.5v21.7c0,1-0.3,1.5-1,1.5c-0.7,0-1.3-0.4-1.8-1.1l-15.6-19.5     c-0.8-1-1.3-1.5-1.5-1.5c-0.2,0-0.4,0.7-0.4,2.2v13.5c0,1,0,1.8,0.1,2.4c0.1,0.5,0.3,1,0.7,1.3c0.4,0.3,0.7,0.5,1.1,0.6     c0.4,0.1,1,0.2,1.9,0.3c0.1,0.2,0.2,0.4,0.2,0.8c0,0.4-0.1,0.7-0.2,0.8c-3-0.1-4.6-0.1-4.9-0.1c-0.4,0-2.1,0-5,0.1     c-0.1-0.1-0.2-0.4-0.2-0.8c0-0.4,0.1-0.7,0.2-0.8c1.7-0.2,2.7-0.5,3.2-1c0.5-0.5,0.7-1.7,0.7-3.5V51c-0.1-0.6-0.5-1.3-1.2-1.8     c-0.7-0.6-1.4-0.9-2.3-1c-0.2-0.1-0.2-0.4-0.2-0.8c0-0.4,0.1-0.7,0.2-0.8l6,0.1l15.3,19.6c0.2,0.3,0.4,0.6,0.7,0.9     c0.2,0.3,0.4,0.6,0.5,0.7c0.1,0.2,0.3,0.3,0.4,0.5c0.1,0.2,0.2,0.2,0.3,0.3c0.1,0.1,0.2,0.1,0.2,0.1c0.2,0,0.3-0.4,0.3-1.3     L291.5,52.7L291.5,52.7z"/>
			<path class="st0" d="M329.8,69.9c0,1.8,0.2,2.9,0.7,3.3c0.5,0.4,1.5,0.7,3.2,0.7c0.1,0.2,0.2,0.4,0.2,0.8c0,0.4-0.1,0.7-0.2,0.8     c-3-0.1-4.9-0.1-5.8-0.1c-1,0-2.9,0-5.8,0.1c-0.1-0.1-0.2-0.4-0.2-0.8c0-0.4,0.1-0.7,0.2-0.8c1.6-0.1,2.7-0.3,3.1-0.7     c0.5-0.4,0.7-1.5,0.7-3.3V52.2c0-1.8-0.2-2.9-0.7-3.3c-0.5-0.4-1.5-0.7-3.1-0.7c-0.1-0.1-0.2-0.4-0.2-0.8c0-0.4,0.1-0.7,0.2-0.8     c3,0.1,4.9,0.1,5.7,0.1c1,0,2.9,0,5.8-0.1c0.1,0.2,0.2,0.4,0.2,0.8c0,0.4-0.1,0.7-0.2,0.8c-1.7,0.1-2.7,0.3-3.2,0.7     c-0.4,0.4-0.7,1.5-0.7,3.3L329.8,69.9L329.8,69.9z"/>
			<path class="st0" d="M377.9,48.2c-0.1-0.1-0.2-0.4-0.2-0.8c0-0.4,0.1-0.7,0.2-0.8c2.8,0.1,4.4,0.1,4.9,0.1c0.2,0,1.5,0,3.9-0.1     c0.1,0.2,0.2,0.4,0.2,0.8s-0.1,0.7-0.2,0.8c-0.6,0.1-1.1,0.2-1.5,0.4c-0.4,0.2-0.8,0.4-1,0.6c-0.3,0.2-0.5,0.5-0.8,0.9     c-0.3,0.4-0.4,0.8-0.5,1c-0.1,0.2-0.3,0.6-0.5,1.2L373.1,75c-0.3,0.7-0.6,1-1.1,1c-0.4,0-0.8-0.4-1-1l-8.8-22.7     c-0.7-1.7-1.2-2.8-1.6-3.2c-0.4-0.4-1.2-0.7-2.4-0.8c-0.1-0.2-0.2-0.4-0.2-0.8c0-0.4,0.1-0.6,0.2-0.8c2.8,0.1,4.3,0.1,4.6,0.1     c0.8,0,2.6,0,5.4-0.1c0.1,0.2,0.2,0.4,0.2,0.8s-0.1,0.7-0.2,0.8c-1.5,0.2-2.4,0.5-2.7,0.9c-0.3,0.4-0.1,1.3,0.4,2.6l7.1,18.1h0.2     l7-17.8c0.6-1.2,0.7-2.1,0.4-2.7C380.4,48.7,379.4,48.3,377.9,48.2z"/>
			<path class="st0" d="M422.6,59.4c1.8,0,2.9-0.2,3.3-0.5c0.4-0.4,0.6-1.2,0.7-2.6c0.1-0.1,0.4-0.2,0.7-0.2c0.4,0,0.6,0.1,0.8,0.2     c-0.1,1.8-0.1,3.1-0.1,3.9c0,0.5,0,1.8,0.1,3.9c-0.1,0.2-0.4,0.3-0.8,0.3c-0.4,0-0.6-0.1-0.7-0.2c-0.1-0.8-0.1-1.4-0.3-1.8     c-0.1-0.4-0.5-0.7-1.1-0.9c-0.6-0.3-1.5-0.4-2.7-0.4h-4v10.9c0,1.3,0.5,1.9,1.6,1.9h6.1c2.8,0,4.8-2,5.8-5.9     c0.5-0.1,1.1,0,1.6,0.2c-0.4,2.3-0.9,4.8-1.7,7.4c-2.4-0.1-4.3-0.1-5.7-0.1h-9.6c-2.4,0-4.3,0.1-5.8,0.1     c-0.1-0.1-0.2-0.4-0.2-0.8c0-0.4,0.1-0.7,0.2-0.8c1.7-0.1,2.7-0.3,3.2-0.7c0.5-0.4,0.7-1.5,0.7-3.3V52.2c0-1.8-0.2-2.9-0.7-3.3     c-0.5-0.4-1.5-0.7-3.2-0.7c-0.1-0.1-0.2-0.4-0.2-0.8c0-0.4,0.1-0.7,0.2-0.8l5.8,0.1H428c0.8,0,1.5-0.1,2.2-0.2     c0.1,0,0.2,0,0.2,0.1c0.2,1,0.6,3.1,1,6.4c-0.5,0.2-1,0.3-1.5,0.2c-0.6-1.8-1.2-3.1-1.8-3.9c-0.6-0.7-1.7-1.1-3.2-1.1h-4.7     c-0.5,0-0.9,0.2-1.2,0.6c-0.3,0.4-0.4,0.9-0.4,1.4v9.1L422.6,59.4L422.6,59.4z"/>
			<path class="st0" d="M465.6,70c0,1.7,0.2,2.8,0.7,3.3c0.5,0.4,1.5,0.7,3.2,0.7c0.1,0.2,0.2,0.5,0.2,0.9c0,0.4-0.1,0.6-0.1,0.7     c-3-0.1-4.9-0.1-5.8-0.1c-0.9,0-2.9,0-5.8,0.1c-0.1-0.1-0.2-0.4-0.2-0.7c0-0.4,0.1-0.7,0.2-0.9c1.6-0.1,2.7-0.3,3.2-0.7     c0.4-0.4,0.7-1.5,0.7-3.3V52.2c0-1.8-0.2-2.9-0.7-3.3c-0.5-0.4-1.5-0.7-3.2-0.7c-0.1-0.1-0.2-0.4-0.2-0.8c0-0.4,0.1-0.7,0.2-0.8     c3,0.1,4.9,0.1,5.7,0.1c0.6,0,1.6,0,3-0.1c1.4-0.1,2.2-0.2,2.6-0.2c1.7,0,3.2,0.1,4.3,0.4c1.2,0.3,2.2,0.9,3.1,1.7     c1.5,1.5,2.3,3.4,2.3,5.6c0,2-0.6,3.7-1.8,5c-1.2,1.3-2.5,2.2-3.8,2.6l5.6,9.3c0.7,1.1,1.3,2,2,2.6c0.6,0.6,1.4,0.9,2.3,0.9     c0.2,0.4,0.2,0.8,0,1.1c-0.4,0.2-1,0.3-1.9,0.3c-2.3,0-4.3-1.4-5.9-4.1l-4.7-7.6c-0.4-0.6-0.9-1-1.6-1.3     c-0.7-0.3-1.9-0.4-3.6-0.4L465.6,70L465.6,70z M469.4,48c-2.5,0-3.7,0.9-3.7,2.8V61h2.1c2.4,0,4.2-0.5,5.5-1.5     c1.3-1,1.9-2.7,1.9-5.3C475.3,50.1,473.3,48,469.4,48z"/>
			<path class="st0" d="M523.6,47.4c0.4,2.1,0.7,4,0.8,5.8c-0.2,0.2-0.7,0.2-1.5,0.3c-0.1-0.5-0.3-0.9-0.4-1.3     c-0.1-0.4-0.3-0.7-0.5-1.2c-0.2-0.4-0.4-0.8-0.7-1.1c-0.2-0.3-0.5-0.6-0.9-0.9c-0.3-0.3-0.7-0.5-1.1-0.7     c-0.4-0.2-0.8-0.3-1.4-0.4c-0.5-0.1-1.1-0.2-1.7-0.2c-1.3,0-2.4,0.5-3.4,1.5c-1,1-1.5,2.2-1.5,3.4c0,0.7,0.2,1.3,0.5,2     c0.3,0.6,0.7,1.1,1.1,1.6c0.4,0.4,1,0.8,1.7,1.2c0.7,0.4,1.3,0.7,1.8,0.9c0.5,0.2,1.1,0.4,1.8,0.7c0.7,0.3,1.2,0.5,1.4,0.5     c0.9,0.4,1.7,0.8,2.3,1.2c0.7,0.4,1.3,0.9,2,1.6c0.6,0.6,1.1,1.3,1.4,2.2c0.3,0.8,0.5,1.8,0.5,2.8c0,1.4-0.4,2.8-1.1,4     c-0.8,1.3-1.8,2.3-3.1,3.1c-1.6,1-3.4,1.5-5.5,1.5c-1.5,0-3-0.2-4.6-0.5c-1.6-0.4-2.9-0.5-3.7-0.5c-0.4-1.9-0.7-4.1-0.9-6.8     c0.5-0.2,1-0.3,1.5-0.1c1,4.2,3.7,6.3,8.1,6.3c1.8,0,3.2-0.5,4.1-1.4c1-0.9,1.4-2.3,1.4-4.1c0-0.8-0.1-1.6-0.4-2.2     c-0.3-0.7-0.5-1.2-0.9-1.6c-0.3-0.4-0.8-0.8-1.4-1.2c-0.6-0.4-1.1-0.7-1.5-0.8c-0.4-0.2-1-0.4-1.7-0.7c-0.7-0.3-1.2-0.5-1.5-0.6     c-1.4-0.6-2.5-1.2-3.4-1.8c-0.9-0.6-1.7-1.4-2.4-2.5c-0.6-1-1-2.2-1-3.5c0-2.3,0.9-4.2,2.6-5.6c1.7-1.4,3.8-2.2,6.2-2.2     c1.7,0,3.2,0.2,4.4,0.6C522.4,47.1,523.2,47.3,523.6,47.4z"/>
			<path class="st0" d="M558.2,69.9c0,1.8,0.2,2.9,0.7,3.3c0.5,0.4,1.5,0.7,3.2,0.7c0.1,0.2,0.2,0.4,0.2,0.8c0,0.4-0.1,0.7-0.2,0.8     c-3-0.1-4.9-0.1-5.8-0.1c-1,0-2.9,0-5.8,0.1c-0.2-0.1-0.2-0.4-0.2-0.8c0-0.4,0.1-0.7,0.2-0.8c1.7-0.1,2.7-0.3,3.2-0.7     c0.5-0.4,0.7-1.5,0.7-3.3V52.2c0-1.8-0.2-2.9-0.7-3.3c-0.4-0.4-1.5-0.7-3.2-0.7c-0.2-0.1-0.2-0.4-0.2-0.8c0-0.4,0.1-0.7,0.2-0.8     c3,0.1,4.9,0.1,5.7,0.1c1,0,2.9,0,5.8-0.1c0.1,0.2,0.2,0.4,0.2,0.8c0,0.4-0.1,0.7-0.2,0.8c-1.7,0.1-2.7,0.3-3.2,0.7     c-0.5,0.4-0.7,1.5-0.7,3.3L558.2,69.9L558.2,69.9z"/>
			<path class="st0" d="M592.9,46.7c0.5,0,1.6,0,3.3,0c1.7,0,3.1-0.1,4.1-0.1c4.3,0,7.9,1.5,10.9,4.4c3,3,4.5,6.5,4.5,10.7     c0,2.6-0.4,4.9-1.4,6.8c-0.9,1.9-2.1,3.3-3.6,4.3s-3,1.7-4.6,2.1c-1.6,0.4-3.2,0.6-5,0.6c-1.8,0-3.5,0-5.2-0.1c-1.7,0-2.7,0-3,0     c-0.9,0-2.9,0-5.8,0.1c-0.1-0.1-0.2-0.4-0.2-0.7c0-0.4,0.1-0.6,0.2-0.8c1.7-0.1,2.7-0.3,3.2-0.7c0.5-0.4,0.7-1.5,0.7-3.3V52.2     c0-1.8-0.2-2.9-0.7-3.3c-0.5-0.4-1.5-0.7-3.2-0.7c-0.1-0.1-0.2-0.4-0.2-0.7c0-0.4,0.1-0.7,0.2-0.8     C590.1,46.7,592,46.7,592.9,46.7z M594.8,71.7c0,0.8,0.3,1.4,0.9,1.7c0.6,0.4,1.9,0.5,3.9,0.5c1.7,0,3.2-0.2,4.5-0.5     c1.3-0.3,2.5-0.9,3.7-1.7c1.1-0.8,2-1.9,2.6-3.4c0.6-1.5,0.9-3.3,0.9-5.5c0-1.8-0.2-3.5-0.7-5.2c-0.5-1.6-1.1-3.2-2.1-4.7     c-1-1.5-2.3-2.6-4-3.4c-1.7-0.9-3.7-1.3-6-1.3c-2.5,0-3.7,0.7-3.7,2.2V71.7L594.8,71.7z"/>
			<path class="st0" d="M645.5,71.8c0,0.3-0.1,0.5-0.1,0.8c-0.1,0.2,0,0.4,0.3,0.6c0.2,0.2,0.4,0.3,0.5,0.4c0.1,0.1,0.4,0.2,0.7,0.2     c0.4,0.1,0.6,0.1,0.8,0.1c0.2,0,0.5,0,0.8,0.1c0.1,0.2,0.2,0.4,0.2,0.8c0,0.4-0.1,0.7-0.2,0.8c-2.2-0.1-4.1-0.1-5.7-0.1     c-0.4,0-1.8,0-4,0.1c-0.1-0.1-0.2-0.4-0.2-0.8c0-0.4,0.1-0.7,0.2-0.8c1.1-0.1,2-0.3,2.7-0.7c0.7-0.4,1.3-1.2,1.8-2.5L653.5,47     c0.7,0,1.5-0.3,2.5-0.9l9.2,25.4c0.2,0.5,0.4,1,0.6,1.3c0.3,0.3,0.6,0.6,1,0.7c0.5,0.2,0.8,0.3,1,0.3c0.2,0,0.7,0.1,1.3,0.1     c0.1,0.2,0.2,0.4,0.2,0.8c0,0.4-0.1,0.7-0.2,0.8c-2.2-0.1-3.9-0.1-5.1-0.1c-1.7,0-3.6,0-5.8,0.1c-0.1-0.1-0.2-0.4-0.2-0.8     c0-0.4,0.1-0.7,0.2-0.8c0.2,0,0.4,0,0.7,0c0.3,0,0.5,0,0.7-0.1c0.2,0,0.3,0,0.6-0.1c0.2,0,0.4-0.1,0.5-0.1c0.1,0,0.2-0.1,0.4-0.1     c0.2-0.1,0.3-0.1,0.3-0.2c0.1-0.1,0.1-0.2,0.2-0.3c0-0.1,0.1-0.3,0-0.4c0-0.1-0.1-0.3-0.1-0.5l-2.6-7.4h-9.4     c-0.5,0-0.9,0.1-1.1,0.2c-0.2,0.1-0.4,0.3-0.5,0.6L645.5,71.8z M650.3,62.9h7.9L654,50.7h-0.3l-4.6,11.5c0,0.1-0.1,0.2,0,0.2     c0,0.1,0,0.1,0.1,0.2c0,0,0.1,0.1,0.2,0.1c0.1,0,0.2,0,0.4,0.1C649.9,62.8,650.1,62.9,650.3,62.9z"/>
			<path class="st0" d="M698.5,46.7c0.5,0,1.6,0,3.3,0c1.7,0,3.1-0.1,4.1-0.1c4.3,0,7.9,1.5,10.9,4.4c3,3,4.5,6.5,4.5,10.7     c0,2.6-0.5,4.9-1.4,6.8c-0.9,1.9-2.1,3.3-3.6,4.3c-1.5,1-3,1.7-4.6,2.1c-1.6,0.4-3.3,0.6-5,0.6c-1.8,0-3.5,0-5.2-0.1     c-1.7,0-2.6,0-2.9,0c-1,0-2.9,0-5.8,0.1c-0.1-0.1-0.2-0.4-0.2-0.7c0-0.4,0.1-0.6,0.2-0.8c1.7-0.1,2.7-0.3,3.2-0.7     c0.5-0.4,0.7-1.5,0.7-3.3V52.2c0-1.8-0.2-2.9-0.7-3.3c-0.4-0.4-1.5-0.7-3.2-0.7c-0.1-0.1-0.2-0.4-0.2-0.7c0-0.4,0.1-0.7,0.2-0.8     C695.7,46.7,697.6,46.7,698.5,46.7z M700.4,71.7c0,0.8,0.3,1.4,0.9,1.7c0.6,0.4,1.9,0.5,3.9,0.5c1.7,0,3.2-0.2,4.5-0.5     c1.3-0.3,2.5-0.9,3.7-1.7c1.1-0.8,2-1.9,2.6-3.4c0.6-1.5,0.9-3.3,0.9-5.5c0-1.8-0.2-3.5-0.7-5.2c-0.4-1.6-1.1-3.2-2.1-4.7     c-1-1.5-2.3-2.6-4-3.4c-1.7-0.9-3.7-1.3-6-1.3c-2.5,0-3.7,0.7-3.7,2.2L700.4,71.7L700.4,71.7L700.4,71.7z"/>
			<path class="st0" d="M757.7,59.4c1.8,0,2.9-0.2,3.3-0.5c0.4-0.4,0.7-1.2,0.7-2.6c0.1-0.1,0.4-0.2,0.7-0.2c0.4,0,0.6,0.1,0.8,0.2     c-0.1,1.8-0.1,3.1-0.1,3.9c0,0.5,0,1.8,0.1,3.9c-0.2,0.2-0.4,0.3-0.8,0.3c-0.4,0-0.6-0.1-0.7-0.2c-0.1-0.8-0.1-1.4-0.3-1.8     c-0.1-0.4-0.5-0.7-1.1-0.9c-0.6-0.3-1.5-0.4-2.7-0.4h-4v10.9c0,1.3,0.5,1.9,1.6,1.9h6.1c2.8,0,4.8-2,5.8-5.9     c0.5-0.1,1.1,0,1.6,0.2c-0.4,2.3-0.9,4.8-1.7,7.4c-2.4-0.1-4.3-0.1-5.7-0.1h-9.6c-2.4,0-4.3,0.1-5.8,0.1     c-0.1-0.1-0.2-0.4-0.2-0.8c0-0.4,0.1-0.7,0.2-0.8c1.6-0.1,2.7-0.3,3.2-0.7c0.5-0.4,0.7-1.5,0.7-3.3V52.2c0-1.8-0.2-2.9-0.7-3.3     c-0.5-0.4-1.5-0.7-3.2-0.7c-0.1-0.1-0.2-0.4-0.2-0.8c0-0.4,0.1-0.7,0.2-0.8l5.8,0.1H763c0.8,0,1.5-0.1,2.2-0.2     c0.1,0,0.2,0,0.2,0.1c0.2,1,0.6,3.1,1,6.4c-0.5,0.2-1,0.3-1.5,0.2c-0.6-1.8-1.2-3.1-1.8-3.9c-0.6-0.7-1.7-1.1-3.2-1.1h-4.7     c-0.5,0-0.9,0.2-1.2,0.6c-0.3,0.4-0.4,0.9-0.4,1.4v9.1L757.7,59.4L757.7,59.4z"/>
		</g>
		<g>
			<path class="st0" d="M226.8,172.1c-5.1,0.1-9.1,0.1-12.2,0.2c-0.3-0.3-0.4-0.8-0.4-1.6c0-0.8,0.1-1.4,0.4-1.8     c3.5-0.1,5.7-0.6,6.7-1.6c1-0.9,1.4-3.2,1.4-7V123c0-3.7-0.5-6-1.4-6.9c-1-0.9-3.2-1.4-6.7-1.5c-0.3-0.3-0.4-0.8-0.4-1.6     c0-0.8,0.1-1.4,0.4-1.7c6.3,0.1,10.3,0.2,12.1,0.2c2,0,6.1-0.1,12.3-0.2c0.2,0.3,0.3,0.9,0.3,1.7c0,0.8-0.1,1.4-0.4,1.7     c-3.5,0.1-5.7,0.6-6.7,1.5c-1,0.9-1.4,3.2-1.4,7V164c0,1.4,0.4,2.6,1.2,3.4c0.8,0.8,1.9,1.3,3.2,1.3h6.9c4.6,0,8-1.1,10.3-3.3     c2.3-2.2,4-5.2,5-9.1c1.1-0.2,2.1,0,3.1,0.5c-0.6,5.4-1.4,10.5-2.4,15.5c-5.8-0.1-9.5-0.2-11.2-0.2L226.8,172.1L226.8,172.1z"/>
			<path class="st0" d="M292.9,123v23.8c0,2.6,0.1,4.8,0.2,6.5c0.1,1.7,0.6,3.6,1.3,5.8c0.8,2.2,1.9,4,3.3,5.3     c3.2,3.1,7,4.7,11.2,4.7c3.1,0,5.7-0.5,7.9-1.5c2.2-1,3.9-2.2,5.1-3.6c1.2-1.4,2.1-3.2,2.8-5.5c0.7-2.2,1.1-4.3,1.3-6.1     c0.1-1.8,0.2-4,0.2-6.5V123c0-2-0.1-3.5-0.3-4.6c-0.2-1-0.7-1.8-1.5-2.4c-0.8-0.6-1.6-0.9-2.5-1.1c-0.8-0.2-2.3-0.3-4.4-0.5     c-0.2-0.3-0.4-0.8-0.4-1.6c0-0.8,0.1-1.4,0.4-1.7c6.3,0.1,9.9,0.2,10.9,0.2c0.2,0,3.4-0.1,9.6-0.2c0.2,0.3,0.4,0.9,0.4,1.7     c0,0.8-0.1,1.4-0.4,1.7c-2.3,0.2-3.8,0.5-4.6,0.8c-0.8,0.3-1.4,1-1.9,2.2c-0.5,1.2-0.7,3-0.7,5.6v21.4c0,4.4-0.3,8.3-1,11.6     c-0.7,3.3-1.9,6.3-3.6,8.9c-1.7,2.7-4.2,4.7-7.4,6.1c-3.2,1.4-7.2,2.1-11.9,2.1c-2.5,0-4.8-0.3-7.1-1c-2.3-0.7-4.6-1.8-7-3.3     c-2.4-1.6-4.3-4-5.8-7.2c-1.4-3.2-2.2-7.1-2.2-11.6V123c0-3.7-0.4-6-1.3-6.9c-0.9-0.9-2.8-1.5-5.8-1.6c-0.2-0.3-0.4-0.8-0.4-1.6     c0-0.8,0.1-1.4,0.4-1.7c6.3,0.1,10,0.2,11.2,0.2c2.3,0,6.6-0.1,12.8-0.2c0.2,0.3,0.3,0.9,0.3,1.7c0,0.8-0.1,1.4-0.4,1.7     c-3.7,0.1-6.1,0.6-7.1,1.5C293.4,116.9,292.9,119.3,292.9,123z"/>
			<path class="st0" d="M390.9,112.8c0.9,4.3,1.4,8.4,1.7,12.1c-0.5,0.3-1.5,0.5-3.1,0.6c-0.3-1-0.6-1.9-0.9-2.6     c-0.3-0.8-0.7-1.6-1.1-2.5c-0.4-0.8-0.9-1.6-1.4-2.2c-0.5-0.6-1.1-1.3-1.8-1.9c-0.7-0.6-1.5-1.1-2.3-1.5     c-0.8-0.4-1.8-0.7-2.9-0.9c-1.1-0.2-2.3-0.3-3.6-0.3c-2.7,0-5.1,1.1-7.2,3.3c-2.1,2.2-3.1,4.6-3.1,7.2c0,1.5,0.3,2.8,1,4.1     c0.7,1.3,1.5,2.4,2.4,3.3c0.9,0.9,2.1,1.7,3.6,2.6c1.5,0.9,2.7,1.5,3.7,1.9c1,0.4,2.3,0.9,3.8,1.5c1.5,0.6,2.5,0.9,2.9,1.1     c1.8,0.8,3.5,1.6,4.9,2.6c1.5,0.9,2.8,2,4.1,3.3c1.3,1.3,2.3,2.8,3,4.6c0.7,1.8,1,3.7,1,5.9c0,3-0.8,5.8-2.4,8.5     c-1.6,2.7-3.8,4.9-6.5,6.6c-3.3,2.1-7.3,3.1-11.7,3.1c-3.1,0-6.3-0.4-9.7-1.1c-3.4-0.7-6-1.1-7.9-1.1c-0.9-3.9-1.5-8.7-1.8-14.3     c1-0.5,2-0.6,3.1-0.3c2,8.9,7.7,13.3,17.1,13.3c3.8,0,6.7-1,8.7-3c2-2,3-4.8,3-8.6c0-1.7-0.3-3.3-0.8-4.7     c-0.5-1.4-1.2-2.6-1.8-3.4c-0.7-0.9-1.7-1.7-2.9-2.5c-1.3-0.8-2.3-1.4-3.2-1.8c-0.8-0.4-2-0.9-3.6-1.5c-1.5-0.6-2.6-1-3.2-1.3     c-2.9-1.2-5.3-2.4-7.2-3.7c-1.9-1.3-3.6-3.1-5-5.2c-1.4-2.2-2.1-4.7-2.1-7.4c0-4.9,1.8-8.9,5.5-11.9c3.6-3,8-4.6,13.1-4.6     c3.6,0,6.7,0.4,9.3,1.3C388.3,112.2,390.1,112.6,390.9,112.8z"/>
			<path class="st0" d="M475.7,141c0,7.9-1.9,14.6-5.8,20.1c-2.6,3.8-6,6.7-10.1,8.8c-4.1,2.1-8.7,3.1-13.8,3.1     c-8.3,0-15.3-2.8-21-8.3c-5.7-5.5-8.5-12.8-8.5-21.9c0-8.3,2.1-15.4,6.4-21.3c2.6-3.6,5.9-6.4,9.8-8.5c3.9-2,8.1-3,12.7-3     c8.7,0,16,2.8,21.7,8.4C472.8,124,475.7,131.6,475.7,141z M444.1,113.4c-2.3,0-4.5,0.6-6.6,1.6c-2.1,1.1-4.1,2.7-5.9,4.8     c-1.8,2.1-3.3,5-4.4,8.8c-1.1,3.7-1.7,7.9-1.7,12.6c0,8.6,2.2,15.5,6.6,20.7c4.4,5.1,9.7,7.7,15.8,7.7c5.5,0,10-2.4,13.6-7.3     c3.5-4.8,5.3-11.3,5.3-19.5c0-9.2-2.1-16.4-6.4-21.6C455.9,116.1,450.6,113.4,444.1,113.4z M449.4,94.8c2.7,1.3,4.6,2.9,5.8,4.9     l-13.6,5.5c-1.8,0.8-3.1,1.1-4,1.1c-1,0-1.4-0.5-1.4-1.4c0-0.7,0.5-1.4,1.4-2L449.4,94.8z"/>
			<path class="st0" d="M519.1,141.6h-8.7v18.7c0,3.7,0.5,6,1.4,6.9c1,0.9,3.2,1.4,6.7,1.6c0.3,0.3,0.5,0.9,0.5,1.8     c0,0.8-0.1,1.4-0.4,1.6c-6.3-0.1-10.4-0.2-12.2-0.2c-2,0-6.1,0.1-12.2,0.2c-0.2-0.3-0.4-0.8-0.4-1.6c0-0.8,0.1-1.4,0.4-1.8     c3.5-0.1,5.7-0.6,6.7-1.6c1-0.9,1.5-3.2,1.5-7V123c0-3.7-0.5-6-1.5-6.9c-1-0.9-3.2-1.4-6.8-1.5c-0.3-0.3-0.4-0.8-0.4-1.7     c0-0.8,0.1-1.4,0.4-1.7l12.2,0.2h24.1c1.7,0,3.1-0.1,4.4-0.4c0.2,0,0.3,0.1,0.4,0.3c0.7,3.6,1.3,8.2,2,13.7     c-0.8,0.3-1.8,0.5-2.9,0.5c-0.8-2.5-1.6-4.5-2.5-5.9c-0.9-1.4-2.3-2.5-4.2-3.4c-1.9-0.9-4.5-1.4-7.7-1.4h-6.1     c-2.3,0-3.4,1.1-3.4,3.3v20.2h8.7c3.8,0,6.2-0.4,7-1.1c0.9-0.8,1.4-2.6,1.5-5.4c0.3-0.3,0.7-0.5,1.5-0.5c0.8,0,1.3,0.2,1.6,0.5     c-0.1,3.8-0.2,6.5-0.2,8.2c0,1.1,0.1,3.8,0.2,8.1c-0.3,0.4-0.8,0.7-1.6,0.7c-0.8,0-1.2-0.2-1.5-0.5c-0.1-1.7-0.3-2.9-0.6-3.7     c-0.3-0.7-1-1.4-2.3-2C523.6,141.9,521.7,141.6,519.1,141.6z"/>
			<path class="st0" d="M615,141c0,7.9-1.9,14.6-5.8,20.1c-2.6,3.8-6,6.7-10.1,8.8c-4.1,2.1-8.7,3.1-13.8,3.1     c-8.3,0-15.3-2.8-21-8.3c-5.7-5.5-8.5-12.8-8.5-21.9c0-8.3,2.1-15.4,6.4-21.3c2.6-3.6,5.9-6.4,9.8-8.5c3.9-2,8.1-3,12.7-3     c8.8,0,16,2.8,21.7,8.4C612.1,124,615,131.6,615,141z M583.4,113.4c-2.3,0-4.5,0.6-6.6,1.6c-2.1,1.1-4.1,2.7-5.9,4.8     c-1.8,2.1-3.3,5-4.4,8.8c-1.1,3.7-1.7,7.9-1.7,12.6c0,8.6,2.2,15.5,6.6,20.7c4.4,5.1,9.7,7.7,15.8,7.7c5.5,0,10-2.4,13.6-7.3     c3.5-4.8,5.3-11.3,5.3-19.5c0-9.2-2.1-16.4-6.4-21.6C595.3,116.1,589.9,113.4,583.4,113.4z"/>
			<path class="st0" d="M684.9,124c0-2.2-0.1-3.8-0.3-5c-0.2-1.1-0.7-2-1.4-2.7c-0.8-0.7-1.5-1.1-2.3-1.2c-0.8-0.2-2.2-0.4-4.1-0.6     c-0.3-0.3-0.5-0.8-0.5-1.6c0-0.8,0.1-1.4,0.5-1.7c6.3,0.1,9.8,0.2,10.4,0.2c0.9,0,4.4-0.1,10.5-0.2c0.2,0.3,0.4,0.9,0.4,1.7     c0,0.8-0.1,1.4-0.4,1.7c-3.5,0.4-5.8,1-6.7,2c-1,1-1.4,3.5-1.4,7.4v45.9c0,2.1-0.7,3.1-2.2,3.1c-1.4,0-2.6-0.8-3.8-2.4     l-32.9-41.3c-1.6-2.1-2.7-3.1-3.2-3.1c-0.5,0-0.8,1.5-0.8,4.6v28.6c0,2.2,0.1,3.8,0.3,5c0.2,1.1,0.7,2,1.4,2.7     c0.7,0.6,1.5,1.1,2.3,1.3c0.8,0.2,2.2,0.4,4.1,0.6c0.2,0.3,0.4,0.9,0.4,1.8c0,0.8-0.1,1.4-0.4,1.6c-6.3-0.1-9.8-0.2-10.5-0.2     c-0.9,0-4.4,0.1-10.5,0.2c-0.3-0.3-0.5-0.8-0.5-1.6c0-0.8,0.1-1.4,0.5-1.8c3.5-0.4,5.8-1,6.7-2c1-1,1.4-3.5,1.4-7.5v-38.9     c-0.3-1.4-1.1-2.7-2.5-3.9c-1.4-1.2-3-1.9-4.9-2.1c-0.3-0.3-0.5-0.8-0.5-1.6c0-0.8,0.2-1.4,0.5-1.7l12.7,0.2l32.3,41.5     c0.4,0.5,0.9,1.2,1.4,1.9c0.5,0.7,0.9,1.2,1.2,1.5c0.3,0.3,0.5,0.6,0.8,0.9c0.3,0.3,0.5,0.5,0.7,0.7c0.2,0.1,0.3,0.2,0.5,0.2     c0.4,0,0.7-0.9,0.7-2.8L684.9,124L684.9,124z"/>
			<path class="st0" d="M727.1,164.4c-0.1,0.6-0.2,1.1-0.3,1.6c-0.1,0.5,0.1,0.9,0.5,1.2c0.5,0.3,0.8,0.6,1.1,0.7     c0.3,0.2,0.8,0.4,1.6,0.5c0.8,0.2,1.4,0.2,1.8,0.3c0.4,0,1,0.1,1.8,0.2c0.2,0.3,0.4,0.9,0.4,1.8c0,0.8-0.1,1.4-0.4,1.6     c-4.7-0.1-8.7-0.2-12.1-0.2c-1,0-3.8,0.1-8.4,0.2c-0.3-0.3-0.5-0.8-0.5-1.6c0-0.8,0.2-1.4,0.5-1.8c2.4-0.2,4.3-0.7,5.7-1.5     c1.4-0.8,2.6-2.5,3.8-5.2l21.4-50.3c1.4,0,3.1-0.6,5.2-1.9l19.4,53.6c0.4,1.1,0.8,2,1.3,2.7c0.5,0.7,1.3,1.2,2.2,1.5     c0.9,0.3,1.6,0.5,2.1,0.6c0.5,0.1,1.4,0.2,2.8,0.3c0.3,0.3,0.5,0.9,0.5,1.8c0,0.8-0.2,1.4-0.5,1.6c-4.7-0.1-8.2-0.2-10.8-0.2     c-3.6,0-7.7,0.1-12.3,0.2c-0.2-0.3-0.4-0.8-0.4-1.6c0-0.8,0.1-1.4,0.4-1.8c0.4,0,0.9,0,1.5-0.1c0.6,0,1.1-0.1,1.4-0.1     c0.3,0,0.7-0.1,1.2-0.1c0.5-0.1,0.9-0.1,1.1-0.2c0.3-0.1,0.5-0.2,0.9-0.3c0.3-0.1,0.6-0.3,0.7-0.5c0.1-0.2,0.2-0.4,0.3-0.6     c0.1-0.3,0.1-0.5,0.1-0.8c0-0.3-0.1-0.7-0.2-1.1l-5.5-15.7h-19.9c-1.1,0-1.9,0.1-2.3,0.3c-0.4,0.2-0.7,0.6-1,1.2L727.1,164.4z      M737.3,145.4H754l-8.8-25.6h-0.6l-9.6,24.4c-0.1,0.2-0.1,0.4-0.1,0.5c0,0.1,0.1,0.3,0.2,0.4c0.1,0.1,0.2,0.2,0.5,0.2     c0.2,0.1,0.5,0.1,0.8,0.1C736.5,145.4,736.9,145.4,737.3,145.4z"/>
		</g>
	</g>
	<g>
		<path class="st0" d="M150,172.3h18.7v-33.9c-7.9,2.2-15.9,4.7-24.1,7.7C146.8,154.8,148.6,163.5,150,172.3z"/>
		<path class="st0" d="M125.6,153.6c-12,5.2-24.2,11.2-36.7,18.3c-0.2,0.1-0.4,0.3-0.7,0.4H141c-1.7-7.4-3.6-15-5.9-22.6    C132,150.9,128.8,152.2,125.6,153.6z"/>
		<path class="st0" d="M142.5,137.9c8.7-2.7,17.4-4.9,26.2-6.7V92.6c-12.4,2-25,5-38,9.2C135.2,113.8,139.2,125.8,142.5,137.9z"/>
		<path class="st0" d="M116.8,99.2c-3.8-8.9-8-17.9-12.7-27.1c-5.4,2.8-10.5,6-15.2,9.7c-13.7,10.9-24,25.6-27.8,42.7    c9.2-5.5,18.5-10.3,27.8-14.5C98.2,105.8,107.4,102.2,116.8,99.2z"/>
		<path class="st0" d="M88.9,159.7c12.2-6.2,24.4-11.6,36.7-16.2c2.3-0.9,4.6-1.7,6.9-2.5c-2.1-6.6-4.4-13.2-6.9-19.9    c-1.9-5.1-3.9-10.3-6.1-15.5c-10,3.8-20.2,8.2-30.6,13.6c-9.6,4.9-19.4,10.5-29.4,16.9c-0.6,11.3,1.6,23.4,7.3,35.9    C74.1,167.6,81.5,163.5,88.9,159.7z"/>
		<path class="st0" d="M44.6,142l-8.3-1.3c3-2.1,6-4.2,9-6.2c3.7-28.2,20.2-52.8,43.7-67c3.2-2,6.6-3.7,10.1-5.3    c-0.8-1.5-1.6-3.1-2.5-4.7l4.5-18c3.5,6.1,6.8,12.2,9.9,18.3c4.7-1.3,9.6-2.3,14.7-2.8c13.6-1.4,28.2,0.3,43.1,5.8V15.4H11.8    v156.8h36.3C45.2,162,44.1,151.8,44.6,142z"/>
		<path class="st0" d="M125.6,64.3c-3.4,0.8-6.8,1.8-10,2.9c3.6,7.4,6.9,14.8,10,22.1c0.9,2.2,1.8,4.3,2.7,6.5    c13.4-3.6,26.9-6,40.4-7.1V65.3C154.5,61.1,139.6,61.1,125.6,64.3z"/>
		<path class="st0" d="M88.9,81.8c4.7-3.7,9.8-7,15.2-9.7c4.6,9.2,8.8,18.2,12.7,27.1c-9.3,3-18.6,6.6-27.9,10.8    c-9.3,4.2-18.6,9.1-27.8,14.5C64.9,107.5,75.2,92.7,88.9,81.8z M59.5,136.2c10-6.4,19.8-12,29.4-16.9c10.4-5.3,20.6-9.8,30.6-13.6    c2.2,5.2,4.2,10.4,6.1,15.5c2.5,6.7,4.8,13.4,6.9,19.9c-2.3,0.8-4.6,1.6-6.9,2.5c-12.3,4.5-24.5,9.9-36.7,16.2    c-7.4,3.8-14.8,7.9-22.2,12.3C61.1,159.6,58.9,147.5,59.5,136.2z"/>
	</g>
</g>
</svg>