<?xml version="1.0" encoding="UTF-8"?>
<svg id="Layer_1" xmlns="http://www.w3.org/2000/svg" version="1.1" viewBox="0 0 451.6 279.4">
  <!-- Generator: Adobe Illustrator 29.8.2, SVG Export Plug-In . SVG Version: 2.1.1 Build 3)  -->
  <defs>
    <style>
      .st0 {
        fill: #f1d60f;
      }

      .st1 {
        fill: #1c486a;
      }
    </style>
  </defs>
  <path class="st1" d="M36.4,99.1l-4.3-.7c1.6-1.1,3.1-2.2,4.7-3.2,1.9-14.7,10.6-27.6,22.8-35.1,1.7-1,3.5-1.9,5.3-2.8-.4-.8-.9-1.6-1.3-2.4l2.3-9.4c1.8,3.2,3.6,6.4,5.2,9.6,2.5-.7,5-1.2,7.7-1.5,7.1-.7,14.7.2,22.5,3.1v-23.9H19.2v82.1h19c-1.5-5.4-2.1-10.7-1.9-15.9"/>
  <path class="st0" d="M91.4,114.9h9.9v-18c-4.2,1.2-8.5,2.5-12.8,4.1,1.2,4.7,2.1,9.3,2.9,13.9"/>
  <path class="st0" d="M78.4,105c-6.4,2.7-12.9,6-19.5,9.7-.1,0-.2.1-.4.2h28.1c-.9-4-1.9-8-3.1-12-1.7.7-3.4,1.4-5.1,2.1"/>
  <path class="st0" d="M87.4,96.6c4.6-1.4,9.3-2.6,14-3.5v-20.6c-6.6,1.1-13.3,2.7-20.2,4.9,2.5,6.4,4.6,12.8,6.3,19.2"/>
  <path class="st1" d="M72.8,76c-2-4.7-4.3-9.5-6.7-14.4-2.9,1.5-5.6,3.2-8.1,5.2-7.3,5.8-12.8,13.6-14.8,22.7,4.9-2.9,9.9-5.5,14.8-7.7,4.9-2.2,9.9-4.2,14.8-5.8"/>
  <path class="st1" d="M58.9,108.3c6.5-3.3,13-6.2,19.5-8.6,1.2-.5,2.4-.9,3.7-1.3-1.1-3.5-2.3-7-3.7-10.6-1-2.7-2.1-5.5-3.2-8.2-5.3,2-10.7,4.4-16.3,7.2-5.1,2.6-10.3,5.6-15.7,9-.3,6,.9,12.5,3.9,19.1,3.9-2.4,7.9-4.5,11.8-6.6"/>
  <path class="st0" d="M78.2,57.5c-1.8.4-3.6.9-5.3,1.5,1.9,3.9,3.7,7.9,5.3,11.8.5,1.1,1,2.3,1.4,3.4,7.1-1.9,14.3-3.2,21.5-3.8v-12.4c-7.6-2.2-15.5-2.2-22.9-.5"/>
  <path class="st1" d="M23.3,248.4v6c0,.7,0,1.2,0,1.6,0,.4.1.9.3,1.5.2.6.5,1,.8,1.3.8.8,1.8,1.2,2.8,1.2.8,0,1.4-.1,2-.4.6-.2,1-.5,1.3-.9.3-.4.5-.8.7-1.4.2-.6.3-1.1.3-1.5,0-.5,0-1,0-1.6v-5.8c0-.5,0-.9,0-1.2,0-.3-.2-.5-.4-.6-.2-.1-.4-.2-.6-.3-.2,0-.6,0-1.1-.1,0,0,0-.2,0-.4s0-.4,0-.4c1.6,0,2.5,0,2.8,0s.9,0,2.4,0c0,0,0,.2,0,.4s0,.3,0,.4c-.6,0-1,.1-1.2.2-.2,0-.4.2-.5.5-.1.3-.2.8-.2,1.4v5.4c0,1.1,0,2.1-.3,2.9-.2.8-.5,1.6-.9,2.3-.4.7-1.1,1.2-1.9,1.5-.8.3-1.8.5-3,.5s-1.2,0-1.8-.2c-.6-.2-1.2-.4-1.8-.8-.6-.4-1.1-1-1.5-1.8-.4-.8-.5-1.8-.5-2.9v-6.8c0-.9-.1-1.5-.3-1.8-.2-.2-.7-.4-1.5-.4,0,0,0-.2,0-.4s0-.4,0-.4c1.6,0,2.5,0,2.8,0,.6,0,1.7,0,3.2,0,0,0,0,.2,0,.4s0,.3,0,.4c-.9,0-1.5.2-1.8.4-.3.2-.4.8-.4,1.8"/>
  <path class="st1" d="M50.6,248.6c0-.6,0-1,0-1.3,0-.3-.2-.5-.4-.7-.2-.2-.4-.3-.6-.3-.2,0-.6,0-1-.1,0,0-.1-.2-.1-.4,0-.2,0-.4.1-.4,1.6,0,2.5,0,2.6,0s1.1,0,2.7,0c0,0,0,.2,0,.4s0,.3,0,.4c-.9,0-1.5.3-1.7.5-.2.2-.4.9-.4,1.9v11.6c0,.5-.2.8-.5.8s-.7-.2-1-.6l-8.3-10.4c-.4-.5-.7-.8-.8-.8-.1,0-.2.4-.2,1.2v7.2c0,.6,0,1,0,1.3,0,.3.2.5.4.7.2.2.4.3.6.3.2,0,.6,0,1,.1,0,0,0,.2,0,.4,0,.2,0,.3,0,.4-1.6,0-2.5,0-2.6,0s-1.1,0-2.7,0c0,0-.1-.2-.1-.4,0-.2,0-.4.1-.4.9,0,1.5-.3,1.7-.5.2-.3.4-.9.4-1.9v-9.8c0-.3-.3-.7-.6-1-.3-.3-.8-.5-1.2-.5,0,0-.1-.2-.1-.4s0-.4.1-.4h3.2s8.2,10.5,8.2,10.5c.1.1.2.3.4.5.1.2.2.3.3.4,0,0,.1.2.2.2,0,0,.1.1.2.2,0,0,0,0,.1,0,.1,0,.2-.2.2-.7v-7.9Z"/>
  <path class="st1" d="M61,257.8c0,.9.1,1.5.4,1.8.2.2.8.4,1.7.4,0,0,0,.2,0,.4,0,.2,0,.4,0,.4-1.6,0-2.6,0-3.1,0s-1.5,0-3.1,0c0,0-.1-.2-.1-.4s0-.4.1-.4c.9,0,1.4-.2,1.7-.4.2-.2.4-.8.4-1.8v-9.4c0-.9-.1-1.5-.4-1.8-.2-.2-.8-.4-1.7-.4,0,0-.1-.2-.1-.4s0-.4.1-.4c1.6,0,2.6,0,3.1,0s1.6,0,3.1,0c0,0,0,.2,0,.4s0,.3,0,.4c-.9,0-1.5.2-1.7.4-.2.2-.4.8-.4,1.8v9.4Z"/>
  <path class="st1" d="M76.6,246.2c0,0,0-.2,0-.4,0-.2,0-.4,0-.4,1.5,0,2.4,0,2.6,0s.8,0,2.1,0c0,0,.1.2.1.4s0,.3-.1.4c-.3,0-.6.1-.8.2-.2.1-.4.2-.6.3-.1,0-.3.3-.4.5-.1.2-.2.4-.3.5,0,.1-.1.3-.3.7l-4.9,12.1c-.1.4-.3.5-.6.6-.2,0-.4-.2-.5-.6l-4.7-12.1c-.4-.9-.6-1.5-.9-1.7-.2-.2-.6-.4-1.3-.4,0,0-.1-.2-.1-.4s0-.3,0-.4c1.5,0,2.3,0,2.5,0,.4,0,1.4,0,2.9,0,0,0,0,.2,0,.4s0,.3,0,.4c-.8,0-1.3.2-1.4.5-.1.2,0,.7.2,1.4l3.8,9.7h.1l3.8-9.5c.3-.6.4-1.1.2-1.5-.2-.3-.6-.5-1.5-.6"/>
  <path class="st1" d="M90.4,252.2c1,0,1.6,0,1.8-.3.2-.2.3-.6.4-1.4,0,0,.2-.1.4-.1s.3,0,.4.1c0,1,0,1.7,0,2.1s0,1,0,2.1c0,0-.2.1-.4.1s-.3,0-.4-.1c0-.4,0-.7-.1-.9,0-.2-.3-.4-.6-.5-.3-.1-.8-.2-1.5-.2h-2.2v5.8c0,.7.3,1,.8,1h3.2c1.5,0,2.5-1,3.1-3.1.3,0,.6,0,.8.1-.2,1.2-.5,2.6-.9,3.9-1.3,0-2.3,0-3,0h-5.1c-1.3,0-2.3,0-3.1,0,0,0,0-.2,0-.4s0-.4,0-.4c.9,0,1.4-.2,1.7-.4.2-.2.4-.8.4-1.8v-9.4c0-.9-.1-1.5-.4-1.8-.2-.2-.8-.4-1.7-.4,0,0,0-.2,0-.4s0-.4,0-.4h3.1s6.1,0,6.1,0c.4,0,.8,0,1.2,0,0,0,0,0,0,0,.1.5.3,1.7.5,3.4-.3.1-.5.2-.8.1-.3-1-.6-1.7-1-2.1s-.9-.6-1.7-.6h-2.5c-.3,0-.5,0-.6.3-.1.2-.2.5-.2.8v4.9h2.2Z"/>
  <path class="st1" d="M103.4,257.8c0,.9.1,1.5.4,1.7.2.2.8.4,1.7.4,0,.1,0,.3,0,.5s0,.3,0,.4c-1.6,0-2.6,0-3.1,0s-1.5,0-3.1,0c0,0-.1-.2-.1-.4s0-.4.1-.5c.9,0,1.4-.2,1.7-.4.2-.2.4-.8.4-1.8v-9.5c0-.9-.1-1.5-.4-1.8-.2-.2-.8-.4-1.7-.4,0,0-.1-.2-.1-.4s0-.4.1-.4c1.6,0,2.6,0,3.1,0s.9,0,1.6,0c.7,0,1.2,0,1.4,0,.9,0,1.7,0,2.3.2.6.1,1.2.5,1.7.9.8.8,1.2,1.8,1.2,3s-.3,2-1,2.7c-.7.7-1.3,1.2-2,1.4l3,5c.4.6.7,1.1,1,1.4.3.3.7.5,1.2.5.1.2.1.4,0,.6-.2.1-.6.2-1,.2-1.2,0-2.3-.7-3.1-2.2l-2.5-4.1c-.2-.3-.5-.5-.8-.7-.4-.1-1-.2-1.9-.2v3.9ZM105.4,246.1c-1.3,0-2,.5-2,1.5v5.4h1.1c1.3,0,2.3-.3,3-.8.7-.5,1-1.5,1-2.8,0-2.2-1.1-3.3-3.2-3.3"/>
  <path class="st1" d="M124.3,245.8c.2,1.1.4,2.1.4,3.1-.1,0-.4.1-.8.1,0-.2-.2-.5-.2-.7,0-.2-.2-.4-.3-.6-.1-.2-.2-.4-.4-.6-.1-.2-.3-.3-.5-.5-.2-.2-.4-.3-.6-.4-.2-.1-.5-.2-.7-.2-.3,0-.6,0-.9,0-.7,0-1.3.3-1.8.8-.5.5-.8,1.2-.8,1.8s0,.7.3,1c.2.3.4.6.6.8.2.2.5.4.9.7s.7.4.9.5c.3.1.6.2,1,.4s.6.2.7.3c.5.2.9.4,1.2.6.4.2.7.5,1,.8s.6.7.8,1.2c.2.4.3.9.3,1.5s-.2,1.5-.6,2.2c-.4.7-1,1.2-1.6,1.7-.8.5-1.8.8-3,.8s-1.6,0-2.5-.3c-.9-.2-1.5-.3-2-.3-.2-1-.4-2.2-.5-3.6.2-.1.5-.2.8,0,.5,2.2,2,3.4,4.3,3.4s1.7-.2,2.2-.7c.5-.5.8-1.2.8-2.2s0-.8-.2-1.2c-.1-.4-.3-.6-.5-.9-.2-.2-.4-.4-.7-.6-.3-.2-.6-.4-.8-.4-.2,0-.5-.2-.9-.4-.4-.2-.7-.3-.8-.3-.7-.3-1.3-.6-1.8-.9-.5-.3-.9-.8-1.3-1.3s-.5-1.2-.5-1.9c0-1.2.5-2.2,1.4-3,.9-.8,2-1.2,3.3-1.2s1.7.1,2.3.3c.7.2,1.1.3,1.3.4"/>
  <path class="st1" d="M132.7,257.8c0,.9.1,1.5.4,1.8.2.2.8.4,1.7.4,0,0,0,.2,0,.4,0,.2,0,.4,0,.4-1.6,0-2.6,0-3.1,0s-1.5,0-3.1,0c0,0-.1-.2-.1-.4s0-.4.1-.4c.9,0,1.4-.2,1.7-.4.2-.2.4-.8.4-1.8v-9.4c0-.9-.1-1.5-.4-1.8-.2-.2-.8-.4-1.7-.4,0,0-.1-.2-.1-.4s0-.4.1-.4c1.6,0,2.6,0,3.1,0s1.6,0,3.1,0c0,0,0,.2,0,.4s0,.3,0,.4c-.9,0-1.5.2-1.7.4-.2.2-.4.8-.4,1.8v9.4Z"/>
  <path class="st1" d="M141.2,245.4c.3,0,.8,0,1.7,0,.9,0,1.6,0,2.2,0,2.3,0,4.2.8,5.8,2.4,1.6,1.6,2.4,3.5,2.4,5.7s-.2,2.6-.7,3.6c-.5,1-1.1,1.8-1.9,2.3-.8.5-1.6.9-2.5,1.1-.8.2-1.7.3-2.7.3s-1.9,0-2.8,0c-.9,0-1.4,0-1.6,0-.5,0-1.5,0-3.1,0,0,0-.1-.2-.1-.4s0-.3.1-.4c.9,0,1.4-.2,1.7-.4.2-.2.4-.8.4-1.8v-9.5c0-.9-.1-1.5-.4-1.8-.2-.2-.8-.4-1.7-.4,0,0-.1-.2-.1-.4s0-.3.1-.4c1.6,0,2.6,0,3.1,0M142.3,258.7c0,.4.2.7.5.9.3.2,1,.3,2.1.3s1.7,0,2.4-.3c.7-.2,1.3-.5,2-.9.6-.4,1.1-1,1.4-1.8.3-.8.5-1.8.5-2.9s-.1-1.9-.4-2.8c-.2-.9-.6-1.7-1.1-2.5-.5-.8-1.2-1.4-2.1-1.8-.9-.5-2-.7-3.2-.7s-2,.4-2,1.2v11.4Z"/>
  <path class="st1" d="M159.3,258.8c0,.2,0,.3,0,.4,0,.1,0,.2.1.3.1,0,.2.1.3.2,0,0,.2,0,.4.1.2,0,.3,0,.5,0,.1,0,.3,0,.5,0,0,0,0,.2,0,.4s0,.4,0,.4c-1.2,0-2.2,0-3,0s-1,0-2.1,0c0,0-.1-.2-.1-.4s0-.4.1-.4c.6,0,1.1-.2,1.4-.4.3-.2.7-.6,1-1.3l5.4-12.7c.3,0,.8-.2,1.3-.5l4.9,13.6c0,.3.2.5.3.7.1.2.3.3.6.4.2,0,.4.1.5.2.1,0,.4,0,.7,0,0,0,.1.2.1.4s0,.4-.1.4c-1.2,0-2.1,0-2.7,0-.9,0-1.9,0-3.1,0,0,0,0-.2,0-.4s0-.4,0-.4c0,0,.2,0,.4,0,.2,0,.3,0,.3,0,0,0,.2,0,.3,0,.1,0,.2,0,.3,0,0,0,.1,0,.2,0,0,0,.1,0,.2-.1,0,0,0,0,0-.2,0,0,0-.1,0-.2,0,0,0-.2,0-.3l-1.4-4h-5c-.3,0-.5,0-.6,0-.1,0-.2.2-.2.3l-1.3,3.4ZM161.8,254h4.2l-2.2-6.5h-.2l-2.4,6.2s0,0,0,.1c0,0,0,0,0,0,0,0,0,0,.1,0,0,0,.1,0,.2,0,0,0,.2,0,.3,0"/>
  <path class="st1" d="M177.5,245.4c.3,0,.8,0,1.7,0,.9,0,1.6,0,2.2,0,2.3,0,4.2.8,5.8,2.4,1.6,1.6,2.4,3.5,2.4,5.7s-.2,2.6-.7,3.6c-.5,1-1.1,1.8-1.9,2.3-.8.5-1.6.9-2.5,1.1-.8.2-1.7.3-2.7.3s-1.9,0-2.8,0c-.9,0-1.4,0-1.6,0-.5,0-1.5,0-3.1,0,0,0-.1-.2-.1-.4s0-.3.1-.4c.9,0,1.4-.2,1.7-.4.2-.2.4-.8.4-1.8v-9.5c0-.9-.1-1.5-.4-1.8-.2-.2-.8-.4-1.7-.4,0,0-.1-.2-.1-.4s0-.3.1-.4c1.6,0,2.6,0,3.1,0M178.6,258.7c0,.4.2.7.5.9.3.2,1,.3,2.1.3s1.7,0,2.4-.3c.7-.2,1.3-.5,2-.9.6-.4,1.1-1,1.4-1.8.3-.8.5-1.8.5-2.9s-.1-1.9-.4-2.8c-.2-.9-.6-1.7-1.1-2.5-.5-.8-1.2-1.4-2.1-1.8-.9-.5-2-.7-3.2-.7s-2,.4-2,1.2v11.4Z"/>
  <path class="st1" d="M199.1,252.2c1,0,1.6,0,1.8-.3.2-.2.3-.6.4-1.4,0,0,.2-.1.4-.1s.3,0,.4.1c0,1,0,1.7,0,2.1s0,1,0,2.1c0,0-.2.1-.4.1s-.3,0-.4-.1c0-.4,0-.7-.1-.9,0-.2-.3-.4-.6-.5-.3-.1-.8-.2-1.5-.2h-2.2v5.8c0,.7.3,1,.8,1h3.2c1.5,0,2.5-1,3.1-3.1.3,0,.6,0,.8.1-.2,1.2-.5,2.6-.9,3.9-1.3,0-2.3,0-3,0h-5.1c-1.3,0-2.3,0-3.1,0,0,0,0-.2,0-.4s0-.4,0-.4c.9,0,1.4-.2,1.7-.4.2-.2.4-.8.4-1.8v-9.4c0-.9-.1-1.5-.4-1.8-.2-.2-.8-.4-1.7-.4,0,0,0-.2,0-.4s0-.4,0-.4h3.1s6.1,0,6.1,0c.4,0,.8,0,1.2,0,0,0,0,0,0,0,.1.5.3,1.7.5,3.4-.3.1-.5.2-.8.1-.3-1-.6-1.7-1-2.1s-.9-.6-1.7-.6h-2.5c-.3,0-.5,0-.6.3-.1.2-.2.5-.2.8v4.9h2.2Z"/>
  <path class="st1" d="M218.9,260.8c-1.3,0-2.3,0-3.1,0,0,0-.1-.2-.1-.4s0-.4.1-.4c.9,0,1.4-.2,1.7-.4.2-.2.4-.8.4-1.8v-9.4c0-.9-.1-1.5-.4-1.8-.2-.2-.8-.4-1.7-.4,0,0-.1-.2-.1-.4s0-.4.1-.4c1.6,0,2.6,0,3.1,0s1.5,0,3.1,0c0,0,0,.2,0,.4s0,.3,0,.4c-.9,0-1.4.2-1.7.4-.2.2-.4.8-.4,1.8v10.3c0,.4,0,.7.3.9.2.2.5.3.8.3h1.7c1.2,0,2-.3,2.6-.8.6-.5,1-1.3,1.3-2.3.3,0,.5,0,.8.1-.2,1.4-.4,2.7-.6,3.9-1.5,0-2.4,0-2.8,0h-5.1Z"/>
  <path class="st1" d="M233.9,248.4v6c0,.7,0,1.2,0,1.6,0,.4.1.9.3,1.5.2.6.5,1,.8,1.3.8.8,1.8,1.2,2.8,1.2.8,0,1.4-.1,2-.4.6-.2,1-.5,1.3-.9.3-.4.5-.8.7-1.4.2-.6.3-1.1.3-1.5,0-.5,0-1,0-1.6v-5.8c0-.5,0-.9,0-1.2,0-.3-.2-.5-.4-.6-.2-.1-.4-.2-.6-.3-.2,0-.6,0-1.1-.1,0,0,0-.2,0-.4s0-.4,0-.4c1.6,0,2.5,0,2.8,0s.9,0,2.4,0c0,0,0,.2,0,.4s0,.3,0,.4c-.6,0-1,.1-1.2.2-.2,0-.4.2-.5.5-.1.3-.2.8-.2,1.4v5.4c0,1.1,0,2.1-.3,2.9-.2.8-.5,1.6-.9,2.3-.4.7-1.1,1.2-1.9,1.5-.8.3-1.8.5-3,.5s-1.2,0-1.8-.2c-.6-.2-1.2-.4-1.8-.8-.6-.4-1.1-1-1.5-1.8-.4-.8-.5-1.8-.5-2.9v-6.8c0-.9-.1-1.5-.3-1.8-.2-.2-.7-.4-1.5-.4,0,0,0-.2,0-.4s0-.4,0-.4c1.6,0,2.5,0,2.8,0,.6,0,1.7,0,3.2,0,0,0,0,.2,0,.4s0,.3,0,.4c-.9,0-1.5.2-1.8.4s-.4.8-.4,1.8"/>
  <path class="st1" d="M257,245.8c.2,1.1.4,2.1.4,3.1-.1,0-.4.1-.8.1,0-.2-.2-.5-.2-.7,0-.2-.2-.4-.3-.6-.1-.2-.2-.4-.4-.6-.1-.2-.3-.3-.5-.5-.2-.2-.4-.3-.6-.4-.2-.1-.5-.2-.7-.2-.3,0-.6,0-.9,0-.7,0-1.3.3-1.8.8-.5.5-.8,1.2-.8,1.8s0,.7.3,1c.2.3.4.6.6.8.2.2.5.4.9.7s.7.4.9.5c.3.1.6.2,1,.4s.6.2.7.3c.5.2.9.4,1.2.6s.7.5,1,.8c.3.3.6.7.8,1.2.2.4.3.9.3,1.5s-.2,1.5-.6,2.2c-.4.7-1,1.2-1.6,1.7-.8.5-1.8.8-3,.8s-1.6,0-2.5-.3c-.9-.2-1.5-.3-2-.3-.2-1-.4-2.2-.5-3.6.2-.1.5-.2.8,0,.5,2.2,2,3.4,4.3,3.4s1.7-.2,2.2-.7c.5-.5.8-1.2.8-2.2s0-.8-.2-1.2c-.1-.4-.3-.6-.5-.9-.2-.2-.4-.4-.7-.6-.3-.2-.6-.4-.8-.4-.2,0-.5-.2-.9-.4-.4-.2-.7-.3-.8-.3-.7-.3-1.3-.6-1.8-.9-.5-.3-.9-.8-1.3-1.3s-.5-1.2-.5-1.9c0-1.2.5-2.2,1.4-3,.9-.8,2-1.2,3.3-1.2s1.7.1,2.3.3c.7.2,1.1.3,1.3.4"/>
  <path class="st1" d="M276.7,252.9c0,2-.5,3.7-1.5,5.1-.7,1-1.5,1.7-2.6,2.2-1,.5-2.2.8-3.5.8-2.1,0-3.9-.7-5.3-2.1-1.4-1.4-2.2-3.2-2.2-5.5s.5-3.9,1.6-5.4c.7-.9,1.5-1.6,2.5-2.1,1-.5,2.1-.8,3.2-.8,2.2,0,4,.7,5.5,2.1,1.4,1.4,2.2,3.3,2.2,5.7M268.7,245.9c-.6,0-1.1.1-1.7.4-.5.3-1,.7-1.5,1.2-.5.5-.8,1.3-1.1,2.2-.3.9-.4,2-.4,3.2,0,2.2.6,3.9,1.7,5.2,1.1,1.3,2.4,2,4,2s2.5-.6,3.4-1.8c.9-1.2,1.3-2.9,1.3-4.9s-.5-4.1-1.6-5.4c-1.1-1.3-2.4-2-4.1-2M270,241.2c.7.3,1.2.7,1.5,1.2l-3.4,1.4c-.4.2-.8.3-1,.3-.2,0-.4-.1-.4-.3s.1-.3.4-.5l3-2Z"/>
  <path class="st1" d="M286,253.1h-2.2v4.7c0,.9.1,1.5.4,1.8.2.2.8.4,1.7.4,0,0,.1.2.1.4s0,.3,0,.4c-1.6,0-2.6,0-3.1,0s-1.5,0-3.1,0c0,0,0-.2,0-.4s0-.4,0-.4c.9,0,1.4-.2,1.7-.4.2-.2.4-.8.4-1.8v-9.4c0-.9-.1-1.5-.4-1.8-.2-.2-.8-.4-1.7-.4,0,0,0-.2,0-.4s0-.4,0-.4h3.1s6.1,0,6.1,0c.4,0,.8,0,1.1,0,0,0,0,0,0,0,.2.9.3,2.1.5,3.5-.2,0-.5.1-.7.1-.2-.6-.4-1.1-.6-1.5-.2-.3-.6-.6-1.1-.9-.5-.2-1.1-.3-1.9-.3h-1.6c-.6,0-.9.3-.8.8v5.1h2.2c1,0,1.6,0,1.8-.3.2-.2.4-.7.4-1.4,0,0,.2-.1.4-.1s.3,0,.4.1c0,1,0,1.7,0,2.1s0,1,0,2.1c0,.1-.2.2-.4.2s-.3,0-.4-.1c0-.4,0-.7-.1-.9,0-.2-.3-.4-.6-.5-.3-.1-.8-.2-1.5-.2"/>
  <path class="st1" d="M308.5,252.9c0,2-.5,3.7-1.5,5.1-.7,1-1.5,1.7-2.6,2.2-1,.5-2.2.8-3.5.8-2.1,0-3.9-.7-5.3-2.1-1.4-1.4-2.2-3.2-2.2-5.5s.5-3.9,1.6-5.4c.7-.9,1.5-1.6,2.5-2.1,1-.5,2.1-.8,3.2-.8,2.2,0,4,.7,5.5,2.1,1.4,1.4,2.2,3.3,2.2,5.7M300.5,245.9c-.6,0-1.1.1-1.7.4-.5.3-1,.7-1.5,1.2-.5.5-.8,1.3-1.1,2.2-.3.9-.4,2-.4,3.2,0,2.2.6,3.9,1.7,5.2,1.1,1.3,2.4,2,4,2s2.5-.6,3.4-1.8c.9-1.2,1.3-2.9,1.3-4.9s-.5-4.1-1.6-5.4c-1.1-1.3-2.4-2-4.1-2"/>
  <path class="st1" d="M324.5,248.6c0-.6,0-1,0-1.3,0-.3-.2-.5-.4-.7-.2-.2-.4-.3-.6-.3-.2,0-.6,0-1-.1,0,0-.1-.2-.1-.4,0-.2,0-.4.1-.4,1.6,0,2.5,0,2.6,0s1.1,0,2.7,0c0,0,0,.2,0,.4s0,.3,0,.4c-.9,0-1.5.3-1.7.5-.2.2-.4.9-.4,1.9v11.6c0,.5-.2.8-.5.8s-.7-.2-1-.6l-8.3-10.4c-.4-.5-.7-.8-.8-.8-.1,0-.2.4-.2,1.2v7.2c0,.6,0,1,0,1.3,0,.3.2.5.4.7.2.2.4.3.6.3.2,0,.6,0,1,.1,0,0,0,.2,0,.4,0,.2,0,.3,0,.4-1.6,0-2.5,0-2.6,0s-1.1,0-2.7,0c0,0-.1-.2-.1-.4,0-.2,0-.4.1-.4.9,0,1.5-.3,1.7-.5.2-.3.4-.9.4-1.9v-9.8c0-.3-.3-.7-.6-1-.4-.3-.8-.5-1.2-.5,0,0-.1-.2-.1-.4s0-.4.1-.4h3.2s8.2,10.5,8.2,10.5c.1.1.2.3.4.5.1.2.2.3.3.4,0,0,.1.2.2.2,0,0,.1.1.2.2,0,0,0,0,.1,0,.1,0,.2-.2.2-.7v-7.9Z"/>
  <path class="st1" d="M333.4,258.8c0,.2,0,.3,0,.4,0,.1,0,.2.1.3.1,0,.2.1.3.2,0,0,.2,0,.4.1.2,0,.3,0,.5,0,.1,0,.3,0,.5,0,0,0,0,.2,0,.4s0,.4,0,.4c-1.2,0-2.2,0-3,0s-1,0-2.1,0c0,0-.1-.2-.1-.4s0-.4.1-.4c.6,0,1.1-.2,1.4-.4.3-.2.7-.6,1-1.3l5.4-12.7c.3,0,.8-.2,1.3-.5l4.9,13.6c0,.3.2.5.3.7.1.2.3.3.6.4.2,0,.4.1.5.2.1,0,.4,0,.7,0,0,0,.1.2.1.4s0,.4-.1.4c-1.2,0-2.1,0-2.7,0-.9,0-1.9,0-3.1,0,0,0,0-.2,0-.4s0-.4,0-.4c0,0,.2,0,.4,0,.2,0,.3,0,.3,0,0,0,.2,0,.3,0,.1,0,.2,0,.3,0,0,0,.1,0,.2,0,0,0,.1,0,.2-.1,0,0,0,0,0-.2,0,0,0-.1,0-.2,0,0,0-.2,0-.3l-1.4-4h-5c-.3,0-.5,0-.6,0-.1,0-.2.2-.2.3l-1.3,3.4ZM336,254h4.2l-2.2-6.5h-.2l-2.4,6.2s0,0,0,.1c0,0,0,0,0,0s0,0,.1,0c0,0,.1,0,.2,0,0,0,.2,0,.3,0"/>
  <path class="st1" d="M28.1,165.5h-3.3v7.1c0,1.4.2,2.3.5,2.6.4.3,1.2.5,2.5.6.1.1.2.4.2.7s0,.5-.1.6c-2.4,0-3.9,0-4.6,0s-2.3,0-4.7,0c0-.1-.1-.3-.1-.6s0-.5.1-.7c1.3,0,2.2-.2,2.5-.6.4-.3.6-1.2.6-2.6v-14.2c0-1.4-.2-2.3-.6-2.6-.4-.3-1.2-.5-2.6-.6,0-.1-.1-.3-.1-.6s0-.5.1-.7h4.6c0,0,9.1,0,9.1,0,.6,0,1.2,0,1.7-.1,0,0,.1,0,.1.1.3,1.4.5,3.1.8,5.2-.3.1-.7.2-1.1.2-.3-1-.6-1.7-.9-2.2-.3-.5-.9-1-1.6-1.3-.7-.3-1.7-.5-2.9-.5h-2.3c-.9,0-1.3.4-1.3,1.3v7.7h3.3c1.5,0,2.3-.1,2.7-.4.3-.3.5-1,.6-2.1,0-.1.3-.2.6-.2s.5,0,.6.2c0,1.4,0,2.5,0,3.1s0,1.5,0,3.1c-.1.2-.3.3-.6.3s-.5,0-.6-.2c0-.7-.1-1.1-.2-1.4,0-.3-.4-.5-.9-.8s-1.2-.3-2.2-.3"/>
  <path class="st1" d="M38.4,174.1c0,.2,0,.4-.1.6,0,.2,0,.3.2.4.2.1.3.2.4.3.1,0,.3.1.6.2.3,0,.5,0,.7.1.2,0,.4,0,.7,0,0,.1.1.4.1.7s0,.5-.1.6c-1.8,0-3.3,0-4.6,0s-1.4,0-3.2,0c-.1-.1-.2-.3-.2-.6s0-.5.2-.7c.9,0,1.6-.3,2.2-.6.5-.3,1-1,1.4-2l8.1-19.1c.5,0,1.2-.2,2-.7l7.4,20.4c.1.4.3.8.5,1,.2.3.5.5.8.6.4.1.6.2.8.2.2,0,.5,0,1.1.1.1.1.2.4.2.7s0,.5-.2.6c-1.8,0-3.1,0-4.1,0-1.4,0-2.9,0-4.7,0,0-.1-.1-.3-.1-.6s0-.5.1-.7c.1,0,.3,0,.6,0,.2,0,.4,0,.5,0,.1,0,.3,0,.5,0,.2,0,.3,0,.4,0,0,0,.2,0,.3-.1.1,0,.2-.1.3-.2,0,0,0-.2.1-.2,0,0,0-.2,0-.3,0-.1,0-.3,0-.4l-2.1-6h-7.6c-.4,0-.7,0-.9.1-.2,0-.3.2-.4.5l-2,5.1ZM42.2,166.9h6.3l-3.4-9.7h-.2l-3.7,9.3c0,0,0,.1,0,.2,0,0,0,.1,0,.1,0,0,0,0,.2,0,0,0,.2,0,.3,0,.1,0,.2,0,.4,0"/>
  <path class="st1" d="M68.8,177.4c-2.4,0-4.5-.6-6.3-1.7-1.8-1.2-3-2.6-3.8-4.3-.8-1.7-1.2-3.6-1.2-5.6,0-3.8,1.2-6.9,3.7-9.2,2.2-2,4.7-3,7.6-3s3.4.3,5,.8c1.6.5,2.6.8,2.8.8.4,2.5.7,4.4.8,5.6-.5.2-.9.3-1.2.2-1.2-4-3.8-6-7.8-6s-4,1.1-5.7,3.2c-.7.8-1.2,1.8-1.6,3-.4,1.2-.6,2.6-.6,4.1s.3,3.6.9,5.2c.6,1.6,1.5,3,2.8,4.1,1.3,1.1,2.8,1.7,4.6,1.7s3.2-.3,4.5-.9c1.3-.6,2.6-1.6,3.9-3,.4,0,.6.2.8.5-2.5,3.2-5.5,4.8-9.1,4.8"/>
  <path class="st1" d="M85.1,158.4v9.1c0,1,0,1.8,0,2.5,0,.6.2,1.4.5,2.2.3.8.7,1.5,1.3,2,1.2,1.2,2.6,1.8,4.2,1.8,1.2,0,2.2-.2,3-.6.8-.4,1.5-.8,1.9-1.4.5-.5.8-1.2,1.1-2.1.3-.8.4-1.6.5-2.3,0-.7,0-1.5,0-2.5v-8.8c0-.8,0-1.3-.1-1.7,0-.4-.3-.7-.6-.9s-.6-.4-.9-.4c-.3,0-.9-.1-1.7-.2,0-.1-.1-.3-.1-.6s0-.5.1-.7c2.4,0,3.8,0,4.1,0s1.3,0,3.7,0c0,.1.1.3.1.7s0,.5-.1.6c-.9,0-1.4.2-1.7.3-.3.1-.5.4-.7.8-.2.4-.3,1.1-.3,2.1v8.1c0,1.7-.1,3.1-.4,4.4-.3,1.2-.7,2.4-1.4,3.4-.7,1-1.6,1.8-2.8,2.3-1.2.5-2.7.8-4.5.8s-1.8-.1-2.7-.4c-.9-.2-1.8-.7-2.7-1.3-.9-.6-1.6-1.5-2.2-2.7-.5-1.2-.8-2.7-.8-4.4v-10.2c0-1.4-.2-2.3-.5-2.6-.3-.4-1.1-.6-2.2-.6,0-.1-.1-.3-.1-.6s0-.5.1-.7c2.4,0,3.8,0,4.3,0,.9,0,2.5,0,4.9,0,0,.1.1.3.1.7s0,.5-.1.6c-1.4,0-2.3.2-2.7.6-.4.3-.6,1.2-.6,2.7"/>
  <path class="st1" d="M108.4,177c-1.9,0-3.5,0-4.6,0-.1-.1-.2-.3-.2-.6s0-.5.2-.7c1.3,0,2.2-.2,2.5-.6.4-.3.5-1.2.5-2.6v-14.2c0-1.4-.2-2.3-.5-2.6-.4-.3-1.2-.5-2.5-.6-.1-.1-.2-.3-.2-.6s0-.5.2-.7c2.4,0,3.9,0,4.6,0s2.3,0,4.7,0c0,.1.1.3.1.7s0,.5-.1.6c-1.3,0-2.2.2-2.5.6-.4.3-.5,1.2-.5,2.7v15.6c0,.5.1,1,.4,1.3.3.3.7.5,1.2.5h2.6c1.7,0,3.1-.4,3.9-1.2.9-.8,1.5-2,1.9-3.5.4,0,.8,0,1.2.2-.2,2-.5,4-.9,5.9-2.2,0-3.6,0-4.3,0h-7.6Z"/>
  <path class="st1" d="M126.9,153.9c.4,0,1.3,0,2.6,0,1.4,0,2.5,0,3.3,0,3.4,0,6.4,1.2,8.8,3.6,2.4,2.4,3.6,5.2,3.6,8.6s-.4,3.9-1.1,5.4c-.7,1.5-1.7,2.7-2.9,3.5-1.2.8-2.4,1.4-3.7,1.7-1.3.3-2.6.5-4,.5s-2.8,0-4.2,0c-1.3,0-2.1,0-2.4,0-.8,0-2.3,0-4.6,0-.1-.1-.2-.3-.2-.6s0-.5.2-.6c1.3,0,2.2-.2,2.5-.6.4-.3.5-1.2.5-2.7v-14.3c0-1.4-.2-2.3-.5-2.7-.4-.3-1.2-.5-2.5-.6-.1,0-.2-.3-.2-.6s0-.5.2-.6c2.4,0,3.9,0,4.6,0M128.4,174c0,.6.2,1.1.7,1.4.5.3,1.5.4,3.2.4s2.6-.1,3.6-.4c1-.3,2-.7,2.9-1.4.9-.6,1.6-1.6,2.1-2.8.5-1.2.7-2.7.7-4.4s-.2-2.8-.5-4.2c-.4-1.3-.9-2.6-1.7-3.7-.8-1.2-1.8-2.1-3.2-2.8-1.4-.7-3-1-4.8-1s-3,.6-3,1.7v17.1Z"/>
  <path class="st1" d="M150.8,174.1c0,.2,0,.4-.1.6,0,.2,0,.3.2.4.2.1.3.2.4.3.1,0,.3.1.6.2.3,0,.5,0,.7.1.2,0,.4,0,.7,0,0,.1.1.4.1.7s0,.5-.1.6c-1.8,0-3.3,0-4.6,0s-1.4,0-3.2,0c-.1-.1-.2-.3-.2-.6s0-.5.2-.7c.9,0,1.6-.3,2.2-.6.5-.3,1-1,1.4-2l8.1-19.1c.5,0,1.2-.2,2-.7l7.4,20.4c.1.4.3.8.5,1,.2.3.5.5.8.6.4.1.6.2.8.2.2,0,.5,0,1.1.1.1.1.2.4.2.7s0,.5-.2.6c-1.8,0-3.1,0-4.1,0-1.4,0-2.9,0-4.7,0,0-.1-.1-.3-.1-.6s0-.5.1-.7c.1,0,.3,0,.6,0,.2,0,.4,0,.5,0,.1,0,.3,0,.5,0,.2,0,.3,0,.4,0,0,0,.2,0,.3-.1.1,0,.2-.1.3-.2,0,0,0-.2.1-.2,0,0,0-.2,0-.3,0-.1,0-.3,0-.4l-2.1-6h-7.6c-.4,0-.7,0-.9.1-.2,0-.3.2-.4.5l-2,5.1ZM154.7,166.9h6.3l-3.4-9.7h-.2l-3.7,9.3c0,0,0,.1,0,.2,0,0,0,.1,0,.1,0,0,0,0,.2,0,0,0,.2,0,.3,0,.1,0,.2,0,.4,0"/>
  <path class="st1" d="M175.1,153.9c.4,0,1.3,0,2.6,0,1.4,0,2.5,0,3.3,0,3.4,0,6.4,1.2,8.8,3.6,2.4,2.4,3.6,5.2,3.6,8.6s-.4,3.9-1.1,5.4c-.7,1.5-1.7,2.7-2.9,3.5-1.2.8-2.4,1.4-3.7,1.7-1.3.3-2.6.5-4,.5s-2.8,0-4.2,0c-1.3,0-2.1,0-2.4,0-.8,0-2.3,0-4.6,0-.1-.1-.2-.3-.2-.6s0-.5.2-.6c1.3,0,2.2-.2,2.5-.6.4-.3.5-1.2.5-2.7v-14.3c0-1.4-.2-2.3-.5-2.7-.4-.3-1.2-.5-2.5-.6-.1,0-.2-.3-.2-.6s0-.5.2-.6c2.4,0,3.9,0,4.6,0M176.7,174c0,.6.2,1.1.7,1.4.5.3,1.5.4,3.2.4s2.6-.1,3.6-.4c1-.3,2-.7,2.9-1.4.9-.6,1.6-1.6,2.1-2.8.5-1.2.7-2.7.7-4.4s-.2-2.8-.5-4.2c-.4-1.3-.9-2.6-1.7-3.7-.8-1.2-1.8-2.1-3.2-2.8-1.4-.7-3-1-4.8-1s-3,.6-3,1.7v17.1Z"/>
  <path class="st1" d="M204.4,164.2c1.5,0,2.3-.1,2.7-.4.3-.3.5-1,.6-2.1,0-.1.3-.2.6-.2s.5,0,.6.2c0,1.4,0,2.5,0,3.1s0,1.5,0,3.1c-.1.1-.3.2-.6.2s-.5,0-.6-.2c0-.7-.1-1.1-.2-1.4,0-.3-.4-.5-.9-.8-.5-.2-1.2-.3-2.2-.3h-3.2v8.7c0,1,.4,1.6,1.3,1.6h4.9c2.3,0,3.8-1.6,4.7-4.7.4,0,.9,0,1.3.2-.3,1.9-.7,3.8-1.3,5.9-1.9,0-3.4,0-4.6,0h-7.7c-1.9,0-3.5,0-4.7,0,0-.1-.1-.3-.1-.6s0-.5.1-.7c1.3,0,2.2-.2,2.5-.6.4-.3.6-1.2.6-2.6v-14.2c0-1.4-.2-2.3-.6-2.6-.4-.3-1.2-.5-2.6-.6,0-.1-.1-.3-.1-.6s0-.5.1-.7h4.6c0,0,9.1,0,9.1,0,.6,0,1.2,0,1.7-.1,0,0,.1,0,.1.1.2.8.5,2.5.8,5.1-.4.2-.8.2-1.2.2-.5-1.5-.9-2.5-1.4-3.1-.5-.6-1.4-.9-2.6-.9h-3.8c-.4,0-.7.2-.9.5-.2.3-.3.7-.3,1.2v7.3h3.2Z"/>
  <path class="st1" d="M227.8,153.9c.4,0,1.3,0,2.6,0,1.4,0,2.5,0,3.3,0,3.4,0,6.4,1.2,8.8,3.6,2.4,2.4,3.6,5.2,3.6,8.6s-.4,3.9-1.1,5.4c-.7,1.5-1.7,2.7-2.9,3.5-1.2.8-2.4,1.4-3.7,1.7-1.3.3-2.6.5-4,.5s-2.8,0-4.2,0c-1.3,0-2.1,0-2.4,0-.8,0-2.3,0-4.6,0-.1-.1-.2-.3-.2-.6s0-.5.2-.6c1.3,0,2.2-.2,2.5-.6.4-.3.5-1.2.5-2.7v-14.3c0-1.4-.2-2.3-.5-2.7-.4-.3-1.2-.5-2.5-.6-.1,0-.2-.3-.2-.6s0-.5.2-.6c2.4,0,3.9,0,4.6,0M229.3,174c0,.6.2,1.1.7,1.4.5.3,1.5.4,3.2.4s2.6-.1,3.6-.4c1-.3,2-.7,2.9-1.4.9-.6,1.6-1.6,2.1-2.8.5-1.2.7-2.7.7-4.4s-.2-2.8-.5-4.2c-.4-1.3-.9-2.6-1.7-3.7-.8-1.2-1.8-2.1-3.2-2.8-1.4-.7-3-1-4.8-1s-3,.6-3,1.7v17.1Z"/>
  <path class="st1" d="M257,164.2c1.5,0,2.3-.1,2.7-.4.3-.3.5-1,.6-2.1,0-.1.3-.2.6-.2s.5,0,.6.2c0,1.4,0,2.5,0,3.1s0,1.5,0,3.1c-.1.1-.3.2-.6.2s-.5,0-.6-.2c0-.7-.1-1.1-.2-1.4,0-.3-.4-.5-.9-.8-.5-.2-1.2-.3-2.2-.3h-3.2v8.7c0,1,.4,1.6,1.3,1.6h4.9c2.3,0,3.8-1.6,4.7-4.7.4,0,.9,0,1.3.2-.3,1.9-.7,3.8-1.3,5.9-1.9,0-3.4,0-4.6,0h-7.7c-1.9,0-3.5,0-4.7,0,0-.1-.1-.3-.1-.6s0-.5.1-.7c1.3,0,2.2-.2,2.5-.6.4-.3.6-1.2.6-2.6v-14.2c0-1.4-.2-2.3-.6-2.6-.4-.3-1.2-.5-2.6-.6,0-.1-.1-.3-.1-.6s0-.5.1-.7h4.6c0,0,9.1,0,9.1,0,.6,0,1.2,0,1.7-.1,0,0,.1,0,.1.1.2.8.5,2.5.8,5.1-.4.2-.8.2-1.2.2-.5-1.5-.9-2.5-1.4-3.1-.5-.6-1.4-.9-2.6-.9h-3.8c-.4,0-.7.2-.9.5-.2.3-.3.7-.3,1.2v7.3h3.2Z"/>
  <path class="st1" d="M298.8,172.9l-.9-15h0c0,0-8.1,19-8.1,19-.1.3-.3.4-.5.4-.3,0-.5-.1-.5-.4l-7.4-18.5h0c0,0-1.4,14.3-1.4,14.3,0,1.1,0,1.9.3,2.3.3.5,1,.8,2.1.9,0,.1.1.4.1.7s0,.5-.1.6c-1.4,0-2.5,0-3.3,0s-1.6,0-3.1,0c0-.1-.1-.3-.1-.6s0-.5.1-.7c1,0,1.6-.3,2-.8.3-.4.6-1.2.7-2.3l1.4-14.8c.1-1.3,0-2-.2-2.3-.2-.3-1-.4-2.3-.5-.1-.1-.2-.3-.2-.6s0-.5.2-.7h5.2c0,0,7.4,18.2,7.4,18.2.1.3.2.5.3.5,0,0,.2-.2.3-.5l7.6-18.1h4.7c.1,0,.2.3.2.6,0,.3,0,.5-.2.6-1.2,0-1.9.3-2.2.6-.3.3-.4.9-.3,1.9l1.1,15.1c0,.6,0,1,0,1.3,0,.3,0,.5.2.8,0,.3.2.4.3.5,0,0,.2.2.5.3.2,0,.5.1.7.2.2,0,.6,0,1,0,.1.1.2.4.2.7s0,.5-.2.6c-1.6,0-2.9,0-4,0s-1.6,0-3.9,0c-.1-.1-.2-.3-.2-.6s0-.5.2-.7c.5,0,.8,0,1,0,.2,0,.4,0,.6-.1.2,0,.4-.2.4-.3,0,0,.1-.3.2-.5,0-.3,0-.5,0-.8,0-.3,0-.7,0-1.2"/>
  <path class="st1" d="M314.6,164.2c1.5,0,2.3-.1,2.7-.4.3-.3.5-1,.6-2.1,0-.1.3-.2.6-.2s.5,0,.6.2c0,1.4,0,2.5,0,3.1s0,1.5,0,3.1c-.1.1-.3.2-.6.2s-.5,0-.6-.2c0-.7-.1-1.1-.2-1.4,0-.3-.4-.5-.9-.8-.5-.2-1.2-.3-2.2-.3h-3.2v8.7c0,1,.4,1.6,1.3,1.6h4.9c2.3,0,3.8-1.6,4.7-4.7.4,0,.9,0,1.3.2-.3,1.9-.7,3.8-1.3,5.9-1.9,0-3.4,0-4.6,0h-7.7c-1.9,0-3.5,0-4.7,0,0-.1-.1-.3-.1-.6s0-.5.1-.7c1.3,0,2.2-.2,2.5-.6.4-.3.6-1.2.6-2.6v-14.2c0-1.4-.2-2.3-.6-2.6-.4-.3-1.2-.5-2.6-.6,0-.1-.1-.3-.1-.6s0-.5.1-.7h4.6c0,0,9.1,0,9.1,0,.6,0,1.2,0,1.7-.1,0,0,.1,0,.1.1.2.8.5,2.5.8,5.1-.4.2-.8.2-1.2.2-.5-1.5-.9-2.5-1.4-3.1-.5-.6-1.4-.9-2.6-.9h-3.8c-.4,0-.7.2-.9.5-.2.3-.3.7-.3,1.2v7.3h3.2Z"/>
  <path class="st1" d="M329.4,153.9c.4,0,1.3,0,2.6,0,1.4,0,2.5,0,3.3,0,3.4,0,6.4,1.2,8.8,3.6,2.4,2.4,3.6,5.2,3.6,8.6s-.4,3.9-1.1,5.4c-.7,1.5-1.7,2.7-2.9,3.5-1.2.8-2.4,1.4-3.7,1.7-1.3.3-2.6.5-4,.5s-2.8,0-4.2,0c-1.3,0-2.1,0-2.4,0-.8,0-2.3,0-4.6,0-.1-.1-.2-.3-.2-.6s0-.5.2-.6c1.3,0,2.2-.2,2.5-.6.4-.3.5-1.2.5-2.7v-14.3c0-1.4-.2-2.3-.5-2.7-.4-.3-1.2-.5-2.5-.6-.1,0-.2-.3-.2-.6s0-.5.2-.6c2.4,0,3.9,0,4.6,0M331,174c0,.6.2,1.1.7,1.4.5.3,1.5.4,3.2.4s2.6-.1,3.6-.4c1-.3,2-.7,2.9-1.4.9-.6,1.6-1.6,2.1-2.8.5-1.2.7-2.7.7-4.4s-.2-2.8-.5-4.2c-.4-1.3-.9-2.6-1.7-3.7-.8-1.2-1.8-2.1-3.2-2.8-1.4-.7-3-1-4.8-1s-3,.6-3,1.7v17.1Z"/>
  <path class="st1" d="M355.7,172.6c0,1.4.2,2.3.6,2.6.4.3,1.2.5,2.6.6,0,.1.1.4.1.7,0,.3,0,.5-.1.6-2.4,0-3.9,0-4.6,0s-2.3,0-4.6,0c-.1-.1-.2-.3-.2-.6s0-.5.2-.7c1.3,0,2.2-.2,2.5-.6.4-.3.5-1.2.5-2.6v-14.2c0-1.4-.2-2.3-.5-2.6-.4-.3-1.2-.5-2.5-.6-.1-.1-.2-.3-.2-.6s0-.5.2-.7c2.4,0,3.9,0,4.6,0s2.3,0,4.7,0c0,.1.1.3.1.7,0,.3,0,.5-.1.6-1.3,0-2.2.2-2.6.6-.4.3-.6,1.2-.6,2.6v14.2Z"/>
  <path class="st1" d="M371.7,177.4c-2.4,0-4.5-.6-6.3-1.7-1.8-1.2-3-2.6-3.8-4.3-.8-1.7-1.2-3.6-1.2-5.6,0-3.8,1.2-6.9,3.7-9.2,2.2-2,4.7-3,7.6-3s3.4.3,5,.8c1.6.5,2.6.8,2.8.8.4,2.5.7,4.4.8,5.6-.5.2-.9.3-1.2.2-1.2-4-3.8-6-7.8-6s-4,1.1-5.7,3.2c-.7.8-1.2,1.8-1.6,3-.4,1.2-.6,2.6-.6,4.1s.3,3.6.9,5.2c.6,1.6,1.5,3,2.8,4.1,1.3,1.1,2.8,1.7,4.6,1.7s3.2-.3,4.5-.9c1.3-.6,2.6-1.6,3.9-3,.4,0,.6.2.8.5-2.5,3.2-5.5,4.8-9.1,4.8"/>
  <path class="st1" d="M388.8,172.6c0,1.4.2,2.3.6,2.6.4.3,1.2.5,2.6.6,0,.1.1.4.1.7,0,.3,0,.5-.1.6-2.4,0-3.9,0-4.6,0s-2.3,0-4.6,0c-.1-.1-.2-.3-.2-.6s0-.5.2-.7c1.3,0,2.2-.2,2.5-.6.4-.3.5-1.2.5-2.6v-14.2c0-1.4-.2-2.3-.5-2.6-.4-.3-1.2-.5-2.5-.6-.1-.1-.2-.3-.2-.6s0-.5.2-.7c2.4,0,3.9,0,4.6,0s2.3,0,4.7,0c0,.1.1.3.1.7,0,.3,0,.5-.1.6-1.3,0-2.2.2-2.6.6-.4.3-.6,1.2-.6,2.6v14.2Z"/>
  <path class="st1" d="M413,158.8c0-.8,0-1.5-.1-1.9,0-.4-.3-.8-.5-1-.3-.2-.6-.4-.9-.5-.3,0-.8-.1-1.6-.2-.1-.1-.2-.3-.2-.6,0-.3,0-.5.2-.7,2.4,0,3.7,0,4,0s1.7,0,4,0c0,.1.1.3.1.7s0,.5-.1.6c-1.3.1-2.2.4-2.6.8s-.6,1.3-.6,2.8v17.4c0,.8-.3,1.2-.8,1.2s-1-.3-1.4-.9l-12.5-15.7c-.6-.8-1-1.2-1.2-1.2-.2,0-.3.6-.3,1.7v10.8c0,.8,0,1.5.1,1.9,0,.4.3.8.5,1,.3.2.6.4.9.5.3,0,.8.1,1.6.2,0,.1.1.4.1.7,0,.3,0,.5-.1.6-2.4,0-3.7,0-4,0s-1.7,0-4,0c-.1-.1-.2-.3-.2-.6,0-.3,0-.5.2-.7,1.3-.1,2.2-.4,2.6-.8.4-.4.5-1.3.5-2.8v-14.8c-.1-.5-.4-1-1-1.5-.5-.5-1.1-.7-1.9-.8-.1-.1-.2-.3-.2-.6s0-.5.2-.7h4.8c0,0,12.3,15.8,12.3,15.8.2.2.3.4.5.7.2.3.3.5.4.6,0,.1.2.2.3.4.1.1.2.2.3.3,0,0,.1,0,.2,0,.2,0,.3-.4.3-1.1v-11.8Z"/>
  <path class="st1" d="M423.3,174.1c0,.2,0,.4-.1.6,0,.2,0,.3.2.4.2.1.3.2.4.3s.3.1.6.2c.3,0,.5,0,.7.1.2,0,.4,0,.7,0,0,.1.1.4.1.7s0,.5-.1.6c-1.8,0-3.3,0-4.6,0s-1.4,0-3.2,0c-.1-.1-.2-.3-.2-.6s0-.5.2-.7c.9,0,1.6-.3,2.2-.6.5-.3,1-1,1.4-2l8.1-19.1c.5,0,1.2-.2,2-.7l7.4,20.4c.1.4.3.8.5,1,.2.3.5.5.8.6.4.1.6.2.8.2.2,0,.5,0,1.1.1.1.1.2.4.2.7s0,.5-.2.6c-1.8,0-3.1,0-4.1,0-1.4,0-2.9,0-4.7,0,0-.1-.1-.3-.1-.6s0-.5.1-.7c.1,0,.3,0,.6,0,.2,0,.4,0,.5,0,.1,0,.3,0,.5,0,.2,0,.3,0,.4,0,0,0,.2,0,.3-.1.1,0,.2-.1.3-.2,0,0,0-.2.1-.2,0,0,0-.2,0-.3,0-.1,0-.3,0-.4l-2.1-6h-7.6c-.4,0-.7,0-.9.1s-.3.2-.4.5l-2,5.1ZM427.1,166.9h6.3l-3.4-9.7h-.2l-3.7,9.3c0,0,0,.1,0,.2,0,0,0,.1,0,.1,0,0,0,0,.2,0,0,0,.2,0,.3,0,.1,0,.2,0,.4,0"/>
  <path class="st1" d="M34.3,196.2c0-.1-.1-.3-.1-.6,0-.3,0-.5.1-.7,2.3,0,3.6,0,3.9,0s1.2,0,3.1,0c.1.1.2.3.2.7s0,.5-.2.6c-.5,0-.9.2-1.2.3-.4.2-.6.3-.8.5-.2.1-.4.4-.6.7-.2.4-.4.6-.4.8,0,.2-.2.5-.4,1l-7.4,18.2c-.2.5-.5.8-.9.8-.3,0-.6-.3-.8-.8l-7.1-18.2c-.5-1.4-1-2.3-1.3-2.6-.3-.3-1-.6-1.9-.6-.1-.1-.2-.3-.2-.6s0-.5.1-.6c2.2,0,3.5,0,3.7,0,.6,0,2.1,0,4.3,0,0,.1.1.3.1.7s0,.5-.1.6c-1.2.1-1.9.4-2.1.7-.2.4-.1,1.1.3,2.1l5.7,14.5h.2l5.7-14.3c.5-1,.6-1.7.3-2.2s-1-.8-2.2-.9"/>
  <path class="st1" d="M51.9,205.2c1.5,0,2.3-.1,2.7-.4.3-.3.5-1,.6-2.1,0-.1.3-.2.6-.2s.5,0,.6.2c0,1.4,0,2.5,0,3.1s0,1.5,0,3.1c-.1.1-.3.2-.6.2s-.5,0-.6-.2c0-.7-.1-1.1-.2-1.4,0-.3-.4-.5-.9-.8-.5-.2-1.2-.3-2.2-.3h-3.2v8.7c0,1,.4,1.6,1.3,1.6h4.9c2.3,0,3.8-1.6,4.7-4.7.4,0,.9,0,1.3.2-.3,1.9-.7,3.8-1.3,5.9-1.9,0-3.4,0-4.6,0h-7.7c-1.9,0-3.5,0-4.7,0,0-.1-.1-.3-.1-.6s0-.5.1-.7c1.3,0,2.2-.2,2.5-.6.4-.3.6-1.2.6-2.6v-14.2c0-1.4-.2-2.3-.6-2.6-.4-.3-1.2-.5-2.6-.6,0-.1-.1-.3-.1-.6s0-.5.1-.7h4.6c0,0,9.1,0,9.1,0,.6,0,1.2,0,1.7-.1,0,0,.1,0,.1.1.2.8.5,2.5.8,5.1-.4.2-.8.2-1.2.2-.5-1.5-.9-2.5-1.4-3.1-.5-.6-1.4-.9-2.6-.9h-3.8c-.4,0-.7.2-.9.5-.2.3-.3.7-.3,1.2v7.3h3.2Z"/>
  <path class="st1" d="M74,213.5c0,1.4.2,2.3.6,2.7s1.4.5,2.9.6c.1.1.2.4.2.7,0,.3,0,.5-.2.6-2.4,0-4.1,0-5,0s-2.7,0-5,0c0-.1-.1-.3-.1-.6s0-.5.1-.7c1.5,0,2.4-.2,2.8-.6.4-.4.6-1.2.6-2.7v-13.8c0-1.2-.1-2-.4-2.6-.3-.6-.7-.9-1.3-.9h-1.8c-1.2,0-2.2.3-3,.9-.8.6-1.4,1.6-1.7,3-.5,0-.9,0-1.2-.2.5-2.1.8-3.8.9-5.2,0,0,0-.1.2-.1,2.4.2,5.2.3,8.4.3h3.1c3.2,0,5.9,0,8-.3,0,0,.1,0,.1.1,0,1.5.2,3.2.5,5.1-.3.1-.7.2-1.2.2-.3-1.4-.8-2.4-1.6-2.9-.8-.6-1.9-.9-3.3-.9h-.8c-.6,0-1,.3-1.3.9-.2.6-.4,1.5-.4,2.7v13.7Z"/>
  <path class="st1" d="M93.1,205.2c1.5,0,2.3-.1,2.7-.4.3-.3.5-1,.6-2.1,0-.1.3-.2.6-.2s.5,0,.6.2c0,1.4,0,2.5,0,3.1s0,1.5,0,3.1c-.1.1-.3.2-.6.2s-.5,0-.6-.2c0-.7-.1-1.1-.2-1.4,0-.3-.4-.5-.9-.8-.5-.2-1.2-.3-2.2-.3h-3.2v8.7c0,1,.4,1.6,1.3,1.6h4.9c2.3,0,3.8-1.6,4.7-4.7.4,0,.9,0,1.3.2-.3,1.9-.7,3.8-1.3,5.9-1.9,0-3.4,0-4.6,0h-7.7c-1.9,0-3.5,0-4.7,0,0-.1-.1-.3-.1-.6s0-.5.1-.7c1.3,0,2.2-.2,2.5-.6.4-.3.6-1.2.6-2.6v-14.2c0-1.4-.2-2.3-.6-2.6-.4-.3-1.2-.5-2.6-.6,0-.1-.1-.3-.1-.6s0-.5.1-.7h4.6c0,0,9.1,0,9.1,0,.6,0,1.2,0,1.7-.1,0,0,.1,0,.1.1.2.8.5,2.5.8,5.1-.4.2-.8.2-1.2.2-.5-1.5-.9-2.5-1.4-3.1-.5-.6-1.4-.9-2.6-.9h-3.8c-.4,0-.7.2-.9.5-.2.3-.3.7-.3,1.2v7.3h3.2Z"/>
  <path class="st1" d="M109.4,213.6c0,1.4.2,2.3.6,2.6.4.3,1.2.5,2.5.6,0,.2.1.4.1.7s0,.5-.1.6c-2.4,0-3.9,0-4.6,0s-2.3,0-4.6,0c-.1,0-.2-.3-.2-.6s0-.5.2-.7c1.3,0,2.2-.2,2.5-.6.4-.3.5-1.2.5-2.6v-14.2c0-1.4-.2-2.3-.5-2.6-.4-.3-1.2-.5-2.5-.6-.1,0-.2-.3-.2-.6s0-.5.2-.7c2.4,0,3.9,0,4.6,0s1.3,0,2.4-.1c1.1,0,1.8-.1,2.1-.1,1.4,0,2.5.1,3.5.3.9.2,1.8.7,2.5,1.4,1.2,1.2,1.8,2.7,1.8,4.5s-.5,3-1.5,4c-1,1-2,1.7-3.1,2.1l4.5,7.5c.5.9,1.1,1.6,1.6,2.1.5.5,1.1.7,1.9.7.2.3.2.6,0,.9-.3.2-.8.2-1.5.2-1.8,0-3.4-1.1-4.7-3.3l-3.8-6.1c-.3-.5-.7-.8-1.3-1-.6-.2-1.5-.3-2.9-.3v5.9ZM112.3,196c-2,0-3,.8-3,2.3v8.1h1.7c1.9,0,3.4-.4,4.5-1.2,1-.8,1.6-2.2,1.6-4.3,0-3.3-1.6-5-4.7-5"/>
  <path class="st1" d="M130.1,213.6c0,1.4.2,2.3.6,2.6.4.3,1.2.5,2.6.6,0,.1.1.4.1.7,0,.3,0,.5-.1.6-2.4,0-3.9,0-4.6,0s-2.3,0-4.6,0c-.1-.1-.2-.3-.2-.6s0-.5.2-.7c1.3,0,2.2-.2,2.5-.6.4-.3.5-1.2.5-2.6v-14.2c0-1.4-.2-2.3-.5-2.6-.4-.3-1.2-.5-2.5-.6-.1-.1-.2-.3-.2-.6s0-.5.2-.7c2.4,0,3.9,0,4.6,0s2.3,0,4.7,0c0,.1.1.3.1.7,0,.3,0,.5-.1.6-1.3,0-2.2.2-2.6.6-.4.3-.6,1.2-.6,2.6v14.2Z"/>
  <path class="st1" d="M154.3,199.8c0-.8,0-1.5-.1-1.9,0-.4-.3-.8-.5-1-.3-.2-.6-.4-.9-.5-.3,0-.8-.1-1.6-.2-.1,0-.2-.3-.2-.6,0-.3,0-.5.2-.7,2.4,0,3.7,0,4,0s1.7,0,4,0c0,.1.1.3.1.7s0,.5-.1.6c-1.3.1-2.2.4-2.6.8-.4.4-.6,1.3-.6,2.8v17.4c0,.8-.3,1.2-.8,1.2s-1-.3-1.4-.9l-12.5-15.7c-.6-.8-1-1.2-1.2-1.2-.2,0-.3.6-.3,1.7v10.8c0,.8,0,1.5.1,1.9,0,.4.3.8.5,1,.3.2.6.4.9.5.3,0,.8.1,1.6.2,0,.1.1.4.1.7,0,.3,0,.5-.1.6-2.4,0-3.7,0-4,0s-1.7,0-4,0c-.1-.1-.2-.3-.2-.6,0-.3,0-.5.2-.7,1.3-.1,2.2-.4,2.6-.8.4-.4.5-1.3.5-2.8v-14.8c-.1-.5-.4-1-1-1.5-.5-.5-1.1-.7-1.9-.8-.1,0-.2-.3-.2-.6s0-.5.2-.7h4.8c0,0,12.3,15.8,12.3,15.8.2.2.3.4.5.7.2.3.3.5.4.6,0,.1.2.2.3.4.1.1.2.2.3.3,0,0,.1,0,.2,0,.2,0,.3-.4.3-1.1v-11.8Z"/>
  <path class="st1" d="M164.6,215.1c0,.2,0,.4-.1.6,0,.2,0,.3.2.4.2.1.3.2.4.3.1,0,.3.1.6.2.3,0,.5,0,.7.1.2,0,.4,0,.7,0,0,.1.1.4.1.7s0,.5-.1.6c-1.8,0-3.3,0-4.6,0s-1.4,0-3.2,0c-.1-.1-.2-.3-.2-.6s0-.5.2-.7c.9,0,1.6-.3,2.2-.6.5-.3,1-1,1.4-2l8.1-19.1c.5,0,1.2-.2,2-.7l7.4,20.4c.1.4.3.8.5,1,.2.3.5.5.8.6.4.1.6.2.8.2.2,0,.5,0,1.1.1.1.1.2.4.2.7s0,.5-.2.6c-1.8,0-3.1,0-4.1,0-1.4,0-2.9,0-4.7,0,0-.1-.1-.3-.1-.6s0-.5.1-.7c.1,0,.3,0,.6,0,.2,0,.4,0,.5,0,.1,0,.3,0,.5,0,.2,0,.3,0,.4,0,0,0,.2,0,.3-.1.1,0,.2-.1.3-.2,0,0,0-.2.1-.2,0,0,0-.2,0-.3,0-.1,0-.3,0-.4l-2.1-6h-7.6c-.4,0-.7,0-.9.1-.2,0-.3.2-.4.5l-2,5.1ZM168.5,207.9h6.3l-3.4-9.7h-.2l-3.7,9.3c0,0,0,.1,0,.2,0,0,0,.1,0,.1,0,0,0,0,.2,0,0,0,.2,0,.3,0,.1,0,.2,0,.4,0M174,188.7c1,.5,1.8,1.1,2.2,1.9l-5.2,2.1c-.7.3-1.2.4-1.5.4-.4,0-.5-.2-.5-.5s.2-.5.5-.8l4.4-3.1Z"/>
  <path class="st1" d="M190.4,213.6c0,1.4.2,2.3.6,2.6.4.3,1.2.5,2.5.6,0,.2.1.4.1.7s0,.5-.1.6c-2.4,0-3.9,0-4.6,0s-2.3,0-4.6,0c-.1,0-.2-.3-.2-.6s0-.5.2-.7c1.3,0,2.2-.2,2.5-.6.4-.3.5-1.2.5-2.6v-14.2c0-1.4-.2-2.3-.5-2.6-.4-.3-1.2-.5-2.5-.6-.1,0-.2-.3-.2-.6s0-.5.2-.7c2.4,0,3.9,0,4.6,0s1.3,0,2.4-.1c1.1,0,1.8-.1,2.1-.1,1.4,0,2.5.1,3.5.3.9.2,1.8.7,2.5,1.4,1.2,1.2,1.8,2.7,1.8,4.5s-.5,3-1.5,4c-1,1-2,1.7-3.1,2.1l4.5,7.5c.5.9,1.1,1.6,1.6,2.1.5.5,1.1.7,1.9.7.2.3.2.6,0,.9-.3.2-.8.2-1.5.2-1.8,0-3.4-1.1-4.7-3.3l-3.8-6.1c-.3-.5-.7-.8-1.3-1-.6-.2-1.5-.3-2.9-.3v5.9ZM193.3,196c-2,0-3,.8-3,2.3v8.1h1.7c1.9,0,3.4-.4,4.5-1.2,1-.8,1.6-2.2,1.6-4.3,0-3.3-1.6-5-4.7-5"/>
  <path class="st1" d="M211.1,213.6c0,1.4.2,2.3.6,2.6.4.3,1.2.5,2.6.6,0,.1.1.4.1.7,0,.3,0,.5-.1.6-2.4,0-3.9,0-4.6,0s-2.3,0-4.6,0c-.1-.1-.2-.3-.2-.6s0-.5.2-.7c1.3,0,2.2-.2,2.5-.6.4-.3.5-1.2.5-2.6v-14.2c0-1.4-.2-2.3-.5-2.6-.4-.3-1.2-.5-2.5-.6-.1-.1-.2-.3-.2-.6s0-.5.2-.7c2.4,0,3.9,0,4.6,0s2.3,0,4.7,0c0,.1.1.3.1.7,0,.3,0,.5-.1.6-1.3,0-2.2.2-2.6.6-.4.3-.6,1.2-.6,2.6v14.2Z"/>
  <path class="st1" d="M220.1,215.1c0,.2,0,.4-.1.6,0,.2,0,.3.2.4.2.1.3.2.4.3.1,0,.3.1.6.2.3,0,.5,0,.7.1.2,0,.4,0,.7,0,0,.1.1.4.1.7s0,.5-.1.6c-1.8,0-3.3,0-4.6,0s-1.4,0-3.2,0c-.1-.1-.2-.3-.2-.6s0-.5.2-.7c.9,0,1.6-.3,2.2-.6.5-.3,1-1,1.4-2l8.1-19.1c.5,0,1.2-.2,2-.7l7.4,20.4c.1.4.3.8.5,1,.2.3.5.5.8.6.4.1.6.2.8.2.2,0,.5,0,1.1.1.1.1.2.4.2.7s0,.5-.2.6c-1.8,0-3.1,0-4.1,0-1.4,0-2.9,0-4.7,0,0-.1-.1-.3-.1-.6s0-.5.1-.7c.1,0,.3,0,.6,0,.2,0,.4,0,.5,0,.1,0,.3,0,.5,0,.2,0,.3,0,.4,0,0,0,.2,0,.3-.1.1,0,.2-.1.3-.2,0,0,0-.2.1-.2,0,0,0-.2,0-.3,0-.1,0-.3,0-.4l-2.1-6h-7.6c-.4,0-.7,0-.9.1-.2,0-.3.2-.4.5l-2,5.1ZM223.9,207.9h6.3l-3.4-9.7h-.2l-3.7,9.3c0,0,0,.1,0,.2,0,0,0,.1,0,.1,0,0,0,0,.2,0,0,0,.2,0,.3,0,.1,0,.2,0,.4,0"/>
  <path class="st1" d="M155.8,94.9c0,5.9.6,9.6,1.9,11,1.3,1.4,4.5,2.2,9.7,2.6.4.5.6,1.5.6,2.8s-.2,2.2-.5,2.6c-8.5-.2-14.3-.3-17.5-.3s-7.3.1-15.7.3c-.5-.4-.7-1.3-.7-2.6s.2-2.2.7-2.8c4.3-.3,6.9-1.1,8.1-2.5,1.1-1.4,1.7-5.1,1.7-11v-39.8h-10.2c-.5,0-.7-.3-.7-.8v-1.8c0-1.8,1.1-2.8,3.4-2.8h7.6v-6c0-10.8,2.7-19.2,8-25.1,5.3-6,11.4-8.9,18.3-8.9s10.2,1.1,13.1,3.2c3.1,2.4,4.7,4.9,4.7,7.5s-.7,2.9-2,4.2c-1.3,1.3-2.7,1.9-3.9,1.9-2.5,0-4.4-1.6-5.8-4.7-1-2.5-2.1-4.3-3.5-5.3-1.3-1-3.2-1.5-5.4-1.5-7.8,0-11.7,8.8-11.7,26.3v8.3h16c.8,0,1.2.3,1.2.9v2.8c0,1.2-1.1,1.8-3.4,1.7h-13.8v39.8Z"/>
  <path class="st0" d="M200,60.2c0,1.2.3,1.3,1,.4.1-.1.3-.3.4-.4,7.6-8,15.1-12,22.5-12s7,1,9.7,3.1c2.7,2.1,4.4,4.6,5.1,7.8.2,1,.8,1,1.6,0,2.5-2.6,5.2-4.7,8.1-6.4,3-1.7,5.8-2.9,8.4-3.5,2.7-.7,5.3-1,8-1,6,0,10.1,2,12.2,6.1,2.1,4,3.1,9.9,3.1,17.4v23.2c0,5.9.5,9.5,1.6,10.9,1,1.4,3.7,2.2,7.9,2.6.4.4.6,1.3.6,2.6s-.2,2.2-.6,2.8c-8.5-.2-13.6-.3-15.3-.3s-6.8.1-15.2.3c-.4-.5-.6-1.5-.6-2.8s.2-2.2.6-2.6c4.1-.3,6.6-1.1,7.7-2.6,1-1.4,1.6-5.1,1.6-10.9v-25.9c0-4.7-.7-8.1-2.2-10.1-1.5-2-3.7-3.1-6.6-3.1-7.1,0-13.7,3.3-19.7,9.8,0,1.2.1,3.2.1,5.9v23.4c0,5.9.5,9.5,1.5,10.9,1,1.4,3.4,2.2,7.3,2.6.4.4.6,1.3.6,2.7s-.2,2.3-.6,2.7c-8.5-.2-13.4-.3-14.6-.3-1.8,0-6.8.1-15.1.3-.4-.4-.6-1.3-.6-2.6s.2-2.2.6-2.8c4.2-.3,6.7-1.1,7.7-2.5,1-1.4,1.5-5,1.5-10.9v-25.6c0-8.9-3.3-13.4-9.8-13.4-4.7,0-10.1,2.9-16,8.7-1.7,1.8-2.5,3.8-2.5,6.2v24.1c0,4.1.3,7,.8,8.8.5,1.7,1.3,2.9,2.4,3.4,1.1.6,3,1,5.8,1.3.4.5.6,1.4.6,2.7s-.2,2.2-.6,2.7c-8.3-.2-13.2-.3-14.7-.3-2.6,0-7.9.1-16,.3-.4-.4-.6-1.3-.6-2.6s.2-2.2.6-2.8c4.3-.3,7.1-1.1,8.3-2.6,1.2-1.4,1.8-5.1,1.8-10.9v-28.7c0-4.1-.6-6.7-1.7-7.8-1.2-1.1-3.8-1.8-8-2.2-.6-1.7-.7-3.1-.3-4.2,7.7-1,14-2.4,18.8-4.3.8,0,1.4.4,1.8,1.2.8,1.8,1.2,5.5,1.2,11.3"/>
  <path class="st0" d="M338.4,54.8c-.5-.4-.7-1.3-.8-2.6,0-1.3.2-2.2.8-2.8,7.4.2,12.1.3,14.3.3s5.4-.1,9.8-.3c.5.5.7,1.4.8,2.8,0,1.3-.2,2.2-.8,2.6-2,.2-3.7.5-5,1-1.3.5-2.5,1.3-3.4,2.4s-1.7,2.1-2.2,3.1c-.5.9-1.2,2.4-2,4.4l-19.8,46.2c-1,2.3-2.2,3.4-3.6,3.5-1.7,0-2.9-1-3.7-3.1l-19-46.7c-.1-.3-.3-.8-.5-1.3-1.4-3.6-2.7-5.9-4-7.1-1.2-1.2-3.7-1.9-7.4-2.4-.5-.4-.7-1.3-.8-2.6,0-1.3.2-2.2.8-2.8,7.4.2,11.7.3,13.1.3,3.2,0,8.4-.1,15.7-.3.5.5.7,1.4.7,2.8s-.2,2.2-.7,2.6c-1.2,0-2.1.2-2.9.4-.8.2-1.5.3-2.1.4-.6.1-1,.4-1.2.8-.2.4-.4.7-.6.9-.2.2-.2.6,0,1.3.2.7.3,1.2.4,1.5,0,.3.3,1,.8,2.1.4,1.1.7,1.9.9,2.4l10.7,28.5c1.2,3,2.1,4.6,2.8,4.7.6.1,1.5-1.3,2.8-4.2l12-29c1.6-3.7,2-6.3,1.3-7.5-.7-1.3-3.1-2.1-7-2.3"/>
</svg>